<svg xmlns="http://www.w3.org/2000/svg" viewBox="0 0 477.06 467.48"><defs><style>.cls-1{fill:#f0f0f0;}.cls-2{fill:#e0e0e0;}.cls-3{fill:#27debf;}.cls-20,.cls-4{opacity:0.2;}.cls-21,.cls-5{opacity:0.1;}.cls-6{opacity:0.3;}.cls-17,.cls-7{opacity:0.4;}.cls-14,.cls-16,.cls-17,.cls-20,.cls-21,.cls-25,.cls-8{fill:#fff;}.cls-8{opacity:0.8;}.cls-10,.cls-22,.cls-9{fill:none;stroke:#fff;}.cls-10,.cls-9{stroke-miterlimit:10;}.cls-22,.cls-9{stroke-width:0.74px;}.cls-10{stroke-width:0.72px;}.cls-11{fill:#455a64;}.cls-12{fill:#37474f;}.cls-13{fill:#fafafa;}.cls-15{fill:#f5f5f5;}.cls-16{opacity:0.75;}.cls-18{fill:#f28f8f;}.cls-19{fill:#b16668;}.cls-22{stroke-linecap:round;stroke-linejoin:round;}.cls-23{fill:#263238;}.cls-24{fill:#ebebeb;}.cls-25{opacity:0.7;}.cls-26{opacity:0.05;}.cls-27{fill:#f0997a;}.cls-28{fill:#ffa8a7;}.cls-29{fill:#ffbda7;}</style></defs><title>web_design_graphic</title><g id="Floor"><path id="Floor-2" data-name="Floor" class="cls-1" d="M420.62,245.86c93.15,54.72,93.15,143.45,0,198.17s-244.18,54.72-337.33,0-93.15-143.45,0-198.17S327.47,191.13,420.62,245.86Z" transform="translate(-13.43 -17.6)"/></g><g id="Shadows"><path id="Shadow" class="cls-2" d="M30.36,383,82.9,413.38a4.79,4.79,0,0,0,4.33,0L338.58,268.27a1.33,1.33,0,0,0,0-2.51L286.27,235.3a4.76,4.76,0,0,0-4.33,0L30.36,380.55A1.32,1.32,0,0,0,30.36,383Z" transform="translate(-13.43 -17.6)"/><path id="Shadow-2" data-name="Shadow" class="cls-2" d="M353.68,252.51c-6.23,3.51-6.29,9.3-.14,12.94s16.18,3.75,22.41.24,6.29-9.3.14-12.94S359.9,249,353.68,252.51Z" transform="translate(-13.43 -17.6)"/><path id="Shadow-3" data-name="Shadow" class="cls-2" d="M434.26,269l-6.1-3.54a7.35,7.35,0,0,0-6.67,0l-2.13,1.23L411.42,262a2.87,2.87,0,0,0-2.6,0l-.05,0a.79.79,0,0,0,0,1.5l7.94,4.59-.44.25c-1.84,1.06-1.84,2.79,0,3.86l6.11,3.54,8.91,5.15,11.89-6.86Z" transform="translate(-13.43 -17.6)"/><path id="Shadow-4" data-name="Shadow" class="cls-2" d="M327.83,306l58.53-33.79a5.62,5.62,0,0,1,5.09,0l38.65,22.32c1.4.81,1.4,2.13,0,2.94l-58.53,33.79a5.62,5.62,0,0,1-5.09,0l-38.65-22.32C326.42,308.1,326.42,306.78,327.83,306Z" transform="translate(-13.43 -17.6)"/><path id="Shadow-5" data-name="Shadow" class="cls-2" d="M372.74,377.53a2.73,2.73,0,0,1-2.36-1.42l-1-1.9a.66.66,0,0,0-.19-.1c-.89-.07-1.79-.18-2.65-.33h0a1.34,1.34,0,0,0-.58.11l-2.64,1.75a3.16,3.16,0,0,1-1.71.48,2.88,2.88,0,0,1-1.08-.2l-3.93-1.57a1.89,1.89,0,0,1-.69-3.13l1.36-1.44c-.26-.22-.51-.46-.74-.7a1,1,0,0,0-.45-.21l-4.56.18a2.55,2.55,0,0,1-2.38-1.74l-.68-2.17a2.09,2.09,0,0,1,1.66-2.71l4.2-.72,0-.07c.06-.21.13-.42.22-.63l-2.72-1.37a1.87,1.87,0,0,1-.36-3.19l2.5-2.09a3.13,3.13,0,0,1,1.95-.67,2.73,2.73,0,0,1,.82.12l3.82,1.2a.88.88,0,0,0,.21,0,1.41,1.41,0,0,0,.48-.08c.62-.27,1.27-.51,1.95-.73l-.19-1.6a2.2,2.2,0,0,1,2-2.46l4.91-.51h.25a2.74,2.74,0,0,1,2.36,1.42l1,1.9a.65.65,0,0,0,.19.1c.89.07,1.79.18,2.66.33h0a1.35,1.35,0,0,0,.59-.11l2.64-1.75a3.15,3.15,0,0,1,1.71-.48,2.88,2.88,0,0,1,1.08.2l3.93,1.57A1.89,1.89,0,0,1,387,356l-1.36,1.45c.26.23.51.46.74.7a1,1,0,0,0,.45.21l4.57-.18a2.54,2.54,0,0,1,2.38,1.74l.68,2.17a2.09,2.09,0,0,1-1.66,2.71l-4.2.72,0,.07q-.09.32-.22.63l2.72,1.37a1.87,1.87,0,0,1,.36,3.19l-2.5,2.09a3.13,3.13,0,0,1-1.95.67,2.76,2.76,0,0,1-.82-.12l-3.82-1.2a.88.88,0,0,0-.21,0,1.41,1.41,0,0,0-.48.08c-.61.27-1.27.51-1.95.73l.19,1.6a2.2,2.2,0,0,1-2,2.46l-4.91.51Zm-1.3-18a11.07,11.07,0,0,0-6.85,2,2.66,2.66,0,0,0-1.17,2.33c.18,1.11,1.36,2.2,3.17,2.92a13.14,13.14,0,0,0,4.84.87,11.07,11.07,0,0,0,6.85-2,2.67,2.67,0,0,0,1.17-2.33c-.18-1.11-1.36-2.2-3.17-2.92A13.15,13.15,0,0,0,371.44,359.53Z" transform="translate(-13.43 -17.6)"/><path id="Shadow-6" data-name="Shadow" class="cls-2" d="M426.23,374.22a2.43,2.43,0,0,1-2.36-2l-.87-4.6a43.41,43.41,0,0,1-5.62-1.34,1,1,0,0,0-.25,0,1.22,1.22,0,0,0-.41.06l-7.09,3.29a3,3,0,0,1-1.25.26,3.1,3.1,0,0,1-1.53-.39l-7-4a1.86,1.86,0,0,1-.16-3.2l5-3.61a15,15,0,0,1-1.74-2.53.53.53,0,0,0-.2-.14l-9.29-.58a2.28,2.28,0,0,1-2.13-2.27v-5.2a2.28,2.28,0,0,1,2.13-2.27l9.32-.59a.73.73,0,0,0,.17-.14,15,15,0,0,1,1.74-2.52l-5-3.61a1.86,1.86,0,0,1,.16-3.2l7-4a3.1,3.1,0,0,1,1.53-.38,3,3,0,0,1,1.25.26l7.09,3.29a1.21,1.21,0,0,0,.41.06.88.88,0,0,0,.25,0,43.43,43.43,0,0,1,5.62-1.34l.87-4.6a2.43,2.43,0,0,1,2.36-2h10.28a2.43,2.43,0,0,1,2.36,2l.88,4.6a43.32,43.32,0,0,1,5.62,1.34,1,1,0,0,0,.25,0,1.2,1.2,0,0,0,.41-.06l7.09-3.28a3,3,0,0,1,1.25-.26,3.11,3.11,0,0,1,1.53.38l7,4a1.86,1.86,0,0,1,.16,3.2l-5,3.61a15.07,15.07,0,0,1,1.75,2.53.52.52,0,0,0,.2.14l9.29.59a2.28,2.28,0,0,1,2.13,2.27v5.2a2.28,2.28,0,0,1-2.13,2.27l-9.32.59a.73.73,0,0,0-.17.14,15,15,0,0,1-1.74,2.52l5,3.61a1.86,1.86,0,0,1-.16,3.2l-7,4a3.1,3.1,0,0,1-1.53.38,3,3,0,0,1-1.25-.26L446,366.36a1.19,1.19,0,0,0-.41-.06.88.88,0,0,0-.25,0,43.64,43.64,0,0,1-5.62,1.34l-.87,4.6a2.43,2.43,0,0,1-2.36,2Zm5.14-32a22.67,22.67,0,0,0-11.15,2.65c-2.72,1.57-4.22,3.58-4.22,5.66s1.5,4.09,4.22,5.66a24.79,24.79,0,0,0,22.29,0c2.72-1.57,4.22-3.58,4.22-5.66s-1.5-4.09-4.22-5.66A22.67,22.67,0,0,0,431.37,342.24Z" transform="translate(-13.43 -17.6)"/><path id="Shadow-7" data-name="Shadow" class="cls-2" d="M280.59,352.27l32.23-18.61a1.32,1.32,0,0,0,0-2.5L305,326.63a4.79,4.79,0,0,0-4.33,0L268.4,345.24a1.32,1.32,0,0,0,0,2.5l2.52,1.45L236.53,369c-1.2.69-1.51,1.63-.71,2.09a4.18,4.18,0,0,0,3.62-.41l34.39-19.86,2.43,1.41A4.79,4.79,0,0,0,280.59,352.27Z" transform="translate(-13.43 -17.6)"/><path id="Shadow-8" data-name="Shadow" class="cls-2" d="M189.69,458.2c-15.61,8.14-40.93,8.14-56.54,0s-15.61-21.34,0-29.48,40.93-8.14,56.54,0S205.3,450.06,189.69,458.2Z" transform="translate(-13.43 -17.6)"/><path id="Shadow-9" data-name="Shadow" class="cls-2" d="M235.13,428.83c-7.18,3.75-18.83,3.75-26,0s-7.18-9.82,0-13.56,18.83-3.74,26,0S242.31,425.09,235.13,428.83Z" transform="translate(-13.43 -17.6)"/><path id="Shadow-10" data-name="Shadow" class="cls-2" d="M266.12,384.62a18.3,18.3,0,0,1-9.12-2.23l-.42-.26a1.79,1.79,0,0,1-.82-1.89,2,2,0,0,1,1.78-1.48l9.23-1.35.49-1-2.21-1.3L256,376.41l-.32,0a2.2,2.2,0,0,1-1.85-3.38,9.3,9.3,0,0,1,3.34-3,18.42,18.42,0,0,1,9-2.14,21.32,21.32,0,0,1,3.71.32L308.32,346a5.63,5.63,0,0,1-.07-3,8,8,0,0,1,4.13-4.85,19.8,19.8,0,0,1,18.09.08l.42.26a1.79,1.79,0,0,1,.81,1.89,2,2,0,0,1-1.77,1.49l-9.23,1.35-.49,1,2.21,1.3,9.07-1.32.32,0a2.2,2.2,0,0,1,1.85,3.39,9.3,9.3,0,0,1-3.34,3,18.43,18.43,0,0,1-9,2.14,21.32,21.32,0,0,1-3.71-.32l-38.51,22.23a5.62,5.62,0,0,1,.07,3,8,8,0,0,1-4.13,4.85A18.44,18.44,0,0,1,266.12,384.62Z" transform="translate(-13.43 -17.6)"/></g><g id="Panel"><g id="Plan"><path class="cls-3" d="M337.39,262.34v3.25L85.22,411.18l-1.41-.81A56.48,56.48,0,0,1,55.65,361.6V178.5L307.82,32.92l2.82,1.63V216A53.5,53.5,0,0,0,337.39,262.34Z" transform="translate(-13.43 -17.6)"/><path class="cls-3" d="M337.39,262.34,85.22,407.93A53.5,53.5,0,0,1,58.48,361.6V180.13L310.64,34.54V216A53.5,53.5,0,0,0,337.39,262.34Z" transform="translate(-13.43 -17.6)"/><path class="cls-4" d="M337.39,262.34,85.22,407.93A53.5,53.5,0,0,1,58.48,361.6V180.13L310.64,34.54V216A53.5,53.5,0,0,0,337.39,262.34Z" transform="translate(-13.43 -17.6)"/><polygon class="cls-5" points="42.23 160.91 45.05 162.53 297.21 16.95 294.39 15.32 42.23 160.91"/><path class="cls-6" d="M58.48,361.6V180.13l-2.82-1.63V361.6a56.48,56.48,0,0,0,28.15,48.77l1.41.81v-3.25A53.5,53.5,0,0,1,58.48,361.6Z" transform="translate(-13.43 -17.6)"/><polygon class="cls-7" points="71.79 390.33 71.79 393.59 323.96 248 323.96 244.75 71.79 390.33"/><g id="Tape"><polygon class="cls-3" points="294.14 45.47 291.39 46.81 291.26 43.07 288.5 44.42 288.37 40.67 285.62 42.02 285.48 38.28 282.73 39.62 282.6 35.88 279.84 37.22 279.71 33.48 296.28 1.34 299.04 0 299.17 3.74 301.92 2.4 302.05 6.14 304.81 4.8 304.94 8.54 307.69 7.19 307.83 10.94 310.58 9.59 310.71 13.34 294.14 45.47"/><polygon class="cls-8" points="294.14 45.47 291.39 46.81 291.26 43.07 288.5 44.42 288.37 40.67 285.62 42.02 285.48 38.28 282.73 39.62 282.6 35.88 279.84 37.22 279.71 33.48 296.28 1.34 299.04 0 299.17 3.74 301.92 2.4 302.05 6.14 304.81 4.8 304.94 8.54 307.69 7.19 307.83 10.94 310.58 9.59 310.71 13.34 294.14 45.47"/></g><g id="Tape-2" data-name="Tape"><polygon class="cls-3" points="22.13 155.45 21.39 152 23.99 151.55 23.25 148.1 25.86 147.65 25.12 144.2 27.72 143.75 26.98 140.3 29.59 139.85 28.85 136.4 31.45 135.95 62.14 163.41 62.88 166.85 60.28 167.31 61.02 170.75 58.41 171.21 59.15 174.65 56.55 175.11 57.29 178.55 54.68 179.01 55.42 182.45 52.82 182.91 22.13 155.45"/><polygon class="cls-8" points="22.13 155.45 21.39 152 23.99 151.55 23.25 148.1 25.86 147.65 25.12 144.2 27.72 143.75 26.98 140.3 29.59 139.85 28.85 136.4 31.45 135.95 62.14 163.41 62.88 166.85 60.28 167.31 61.02 170.75 58.41 171.21 59.15 174.65 56.55 175.11 57.29 178.55 54.68 179.01 55.42 182.45 52.82 182.91 22.13 155.45"/></g><g id="Mobile"><path id="_Path_" data-name="&lt;Path&gt;" class="cls-9" d="M151.44,176.58,95.81,208.7A4.17,4.17,0,0,0,93.93,212V345.23c0,1.2.84,1.69,1.88,1.09l55.63-32.12a4.17,4.17,0,0,0,1.88-3.26V177.66C153.32,176.47,152.48,176,151.44,176.58Z" transform="translate(-13.43 -17.6)"/><path id="_Path_2" data-name="&lt;Path&gt;" class="cls-10" d="M149.59,302.6a2.51,2.51,0,0,1-1.55,2.11L99,333c-.85.49-1.55.09-1.55-.9V224.68A3.45,3.45,0,0,1,99,222l49-28.3c.86-.5,1.55-.09,1.55.89Z" transform="translate(-13.43 -17.6)"/><g id="_Group_" data-name="&lt;Group&gt;"><path id="_Path_3" data-name="&lt;Path&gt;" class="cls-9" d="M123.49,196.77c.7-.4,1.26-.08,1.26.73a2.79,2.79,0,0,1-1.26,2.18c-.7.4-1.26.08-1.26-.73A2.79,2.79,0,0,1,123.49,196.77Z" transform="translate(-13.43 -17.6)"/><path id="_Path_4" data-name="&lt;Path&gt;" class="cls-9" d="M116.71,205.83l13.64-7.88c.58-.34,1.05-.1,1.05.53a2.26,2.26,0,0,1-1.05,1.75l-13.64,7.88c-.58.34-1.05.1-1.05-.53A2.26,2.26,0,0,1,116.71,205.83Z" transform="translate(-13.43 -17.6)"/></g></g><g id="Note"><polygon id="_Path_5" data-name="&lt;Path&gt;" class="cls-5" points="267.77 84.61 267.77 153.16 324.56 120.37 324.56 51.82 267.77 84.61"/><g id="_Group_2" data-name="&lt;Group&gt;"><g id="_Group_3" data-name="&lt;Group&gt;"><path id="_Path_6" data-name="&lt;Path&gt;" class="cls-11" d="M344.52,141.35S311,160.13,306.78,162.46s-7-4.43-7-8.55c-4.21,2.69-12.85,4.38-13.29-1l-3-39.06,56.79-32.8Z" transform="translate(-13.43 -17.6)"/><polygon id="_Path_7" data-name="&lt;Path&gt;" class="cls-12" points="326.85 63.48 270.05 96.27 270.05 85.74 326.85 52.95 326.85 63.48"/><polygon id="_Path_8" data-name="&lt;Path&gt;" class="cls-12" points="274.85 138.19 290.4 145.05 285.56 132.38 274.85 138.19"/></g></g><path class="cls-13" d="M309.45,143.24c-.06-.37-.35-.56-.62-.4-1.27.73-2.53,1.58-3.8,2.36a23,23,0,0,0,2.65-5.83c.34-1.33.4-2.93-.1-3.69s-1.35-.56-2.13.12a4.18,4.18,0,0,0-1.42,3.45c0,.29.3.34.34-.08a3.87,3.87,0,0,1,1.25-2.19,1.91,1.91,0,0,1,.84-.49.76.76,0,0,1,.23,0c.1,0,0,0,.1,0l.05,0,0,0,0,0,0,0v0a3.69,3.69,0,0,1,0,1.31,8.68,8.68,0,0,1-.39,1.6A20.88,20.88,0,0,1,305,143c-.63,1.16-1.31,2.26-1.93,3.43-.42.79.08,1.35.5,1.13,1.82-1,3.64-2.28,5.46-3.34A1,1,0,0,0,309.45,143.24Z" transform="translate(-13.43 -17.6)"/><path class="cls-13" d="M315.13,139.53c-.13-.58-.32-1.08-.41-1.71s-.17-1.45-.21-2.21c0-.33,0-.68,0-1a4.38,4.38,0,0,0,.35-1.13,5.71,5.71,0,0,0-.34-2.82c-.21-.6-1.06-.49-1.11.6s-.06,2,0,3h0a4,4,0,0,1-.28.31c.08-.08-.15.13-.21.17l-.34.26a7.46,7.46,0,0,1-.67.42l-.66.36a6.33,6.33,0,0,0,.07-.78A5.39,5.39,0,0,0,311,133c-.08-.18-.34-.35-.49,0a6.64,6.64,0,0,0-.26,2,6.34,6.34,0,0,1-.42,1.9c-.32.79.31,1.12.66.92a16.11,16.11,0,0,0,2.93-1.75c0,.05,0,.11,0,.17a23.17,23.17,0,0,0,.22,2.35,5,5,0,0,0,.51,1.9.43.43,0,0,0,.72.07A1.13,1.13,0,0,0,315.13,139.53Z" transform="translate(-13.43 -17.6)"/><path class="cls-13" d="M321.73,135.29a3,3,0,0,0-.45-.59l-.47-.62-.49-.69.16-.5c.19-.63.37-1.26.57-1.89s.34-1.23.53-1.84a5.27,5.27,0,0,0,.17-.85c.07-.46-.24-1.19-.59-.63a21,21,0,0,0-1.8,4.43,11.73,11.73,0,0,0-1.79-1.83c-.35-.28-.56.66-.34,1,.36.49.67,1.08,1,1.61.19.31.38.63.57.94-.3.93-.6,1.86-.94,2.78-.22.59-.08,1.13.23,1.24s.79-.07,1-.69.43-1.24.63-1.86l.17.26.41.6a2.12,2.12,0,0,0,.49.58c.24.14.57.16.84-.28A1.19,1.19,0,0,0,321.73,135.29Z" transform="translate(-13.43 -17.6)"/><path class="cls-13" d="M326.41,132.85a1.47,1.47,0,0,0,0-.18h0c0-.26,0-.51,0-.77s0-.72,0-1.08c0-.7,0-1.4,0-2.09s-.05-1.55-.14-2.3a5,5,0,0,0-.17-1c-.18-.55-.34-.85-.74-1a.29.29,0,0,0-.26.15,3.53,3.53,0,0,0-.26,2.11c0,.29,0,.58,0,.88,0,.65,0,1.31,0,2,0,1.3,0,2.63,0,3.9s1.49.58,1.57-.66Z" transform="translate(-13.43 -17.6)"/><path class="cls-13" d="M332.11,122.53a4.13,4.13,0,0,0-1.72.79l-.2.12s0-.06,0-.1a3.5,3.5,0,0,1,.11-.53l.05-.16a3.19,3.19,0,0,1,.15-.34,2.58,2.58,0,0,1,.23-.35,3.07,3.07,0,0,1,1.7-1.09.85.85,0,0,0,.57-.83c0-.48-.24-.73-.5-.72a4.07,4.07,0,0,0-3.34,2.66,5.39,5.39,0,0,0-.43,2.82.85.85,0,0,0,1.27.7,5,5,0,0,0,.76-.45l.32-.21.15-.09h0l.1-.05a2.25,2.25,0,0,1,.3-.12s.15,0,.18,0l.07,0,.12.06.09.07.15.17.07.11.1.2a1.83,1.83,0,0,1,.11.33,3.32,3.32,0,0,1,.05,1.12c0-.15,0,.25-.07.32l-.06.24-.07.19a2,2,0,0,1-.21.44l-.18.28,0,.06,0,0a4.36,4.36,0,0,1-.43.44l-.12.1-.28.19-.14.08-.07,0-.11,0a3.44,3.44,0,0,1-.5.15h-.53l-.07,0a4.66,4.66,0,0,0-1.13-.28.21.21,0,0,0-.18.13c-.55,1.16,0,1.75.34,2l.17.08a2.23,2.23,0,0,0,1.33.07,4.18,4.18,0,0,0,1.85-1,6.34,6.34,0,0,0,2-4.67C334,123.77,333.23,122.43,332.11,122.53Z" transform="translate(-13.43 -17.6)"/><path class="cls-13" d="M308,110.92a2,2,0,0,1-.91,1.6c-.13.08-.22,0-.52.09a5.28,5.28,0,0,0-1.71.67c-1.38.8-3.36,2.44-3.36,4.53,0,1.58,1.53.79,2.85,0l.67-.39c1.07-.62,2.35-1.26,3.35-.88,1.26.48,1.52,2.49,1.52,3.59a11.66,11.66,0,0,1-5.52,9.57c-1.22.7-3,1.31-3.92,0a2.05,2.05,0,0,1-.4-1.14,1.47,1.47,0,0,1,.68-1.22c.43-.25.71-.07.92.34l.06.06c.65.67,1.83.2,2.66-.28a8.8,8.8,0,0,0,3-2.85,6.94,6.94,0,0,0,1.15-3.7c0-.91-.28-1.9-1-2.11a2.12,2.12,0,0,0-1.4.23c-1.1.47-2.13,1.18-3.12,1.62-1.16.51-2.91.83-2.91-2.09a8.7,8.7,0,0,1,3-6.19,10.76,10.76,0,0,1,1.89-1.36C305.87,110.48,308,109.37,308,110.92Z" transform="translate(-13.43 -17.6)"/><path class="cls-13" d="M313.67,113.06a3.29,3.29,0,0,1,0,.38l0,4.7c0,.56,0,1.13,0,1.68v1.83c0,.26,0,.49,0,.74v.3a1.12,1.12,0,0,1,0,.24,1.47,1.47,0,0,1-.62,1.3l-.09.05c-.56.33-.79-.19-.79-.8,0-.27,0-.57,0-.83l0-1.1c0-.79,0-1.61,0-2.41v-.64c0-1.33,0-2.63-.06-3.95v-.3a2.91,2.91,0,0,1,.22-1.3,1.66,1.66,0,0,1,.63-.77C313.41,111.94,313.67,112.3,313.67,113.06Zm.1-5.64a1.48,1.48,0,0,1,.06.47,2.12,2.12,0,0,1-.47,1.35,1.24,1.24,0,0,1-.34.29c-.34.2-.7.13-.76-.46a1.89,1.89,0,0,1,0-.31,2.21,2.21,0,0,1,.42-1.38A1.34,1.34,0,0,1,313,107C313.4,106.83,313.67,107,313.77,107.41Z" transform="translate(-13.43 -17.6)"/><path class="cls-13" d="M323,116.87c0,1.17-.8,1.68-1.65,2.17-1.9,1.1-3,2.08-3.94,2.6l-.22.13-.07,0a.73.73,0,0,1-.24.27c-.45.26-.82-.19-.82-.81a2.41,2.41,0,0,1,.13-.74c.15-.43,1.06-2.62,1.28-3.19l2.84-7.2-.1.06c-3.79,2.46-2.14,1.46-3,2-.64.37-.94-.05-.94-.76a1.68,1.68,0,0,1,.83-1.49c.13-.08,1-.53,1.46-.8s.65-.4,1-.6c.67-.43,1.9-1.42,2.25-1.62a.63.63,0,0,1,.21-.07c.46-.22.76,0,.76.57a3.44,3.44,0,0,1-.43,1.42c-1.49,3.51-3.08,7.54-4,9.9l0,.14,1.28-.76,1.12-.76c.49-.33,1.72-1.29,1.77-1.32C322.79,115.8,323,116.18,323,116.87Z" transform="translate(-13.43 -17.6)"/><path class="cls-13" d="M332.13,107.2a1.92,1.92,0,0,1-.33.72,3.2,3.2,0,0,1-1,.78c-4.46,3-3.43,2.35-4.5,3.08L326,112c.22,1.63,1.19,2,2.28,1.41a3.69,3.69,0,0,0,1.07-1c.4-.55.73-1.34,1.05-1.53a.67.67,0,0,1,1,.65,2.28,2.28,0,0,1-.4,1.24,7.26,7.26,0,0,1-2.62,2.81,2.27,2.27,0,0,1-2.48,0c-.83-.62-1.23-1.9-1.23-3.52,0-2.91,1.26-6.63,3.17-8.51a5.27,5.27,0,0,1,1-.81c2.38-1.37,3.4,2.18,3.4,3.76A2.48,2.48,0,0,1,332.13,107.2Zm-5.2,2a23.44,23.44,0,0,0,3.54-2.41l.06-.06c-.24-1.49-.8-2.28-1.86-1.67a7,7,0,0,0-2.56,4.61Z" transform="translate(-13.43 -17.6)"/></g><g id="Image"><path id="_Path_9" data-name="&lt;Path&gt;" class="cls-5" d="M337.1,155.86l-54.89,31.7a2.84,2.84,0,0,0-1.28,2.22v52.3c0,.82.57,1.15,1.28.74l54.89-31.7a2.84,2.84,0,0,0,1.28-2.22V156.6C338.38,155.79,337.81,155.45,337.1,155.86Z" transform="translate(-13.43 -17.6)"/><g id="_Group_4" data-name="&lt;Group&gt;"><path id="_Path_10" data-name="&lt;Path&gt;" class="cls-2" d="M339.85,157.45,285,189.15a2.84,2.84,0,0,0-1.28,2.22v52.3a2.84,2.84,0,0,0,1.28,2.22l.82.47a2.84,2.84,0,0,0,2.57,0l54.89-31.7a2.84,2.84,0,0,0,1.28-2.22v-52.3a2.84,2.84,0,0,0-1.28-2.22l-.82-.47A2.84,2.84,0,0,0,339.85,157.45Z" transform="translate(-13.43 -17.6)"/><path id="_Path_11" data-name="&lt;Path&gt;" class="cls-14" d="M344.47,159.77c-.16-.53-.65-.7-1.23-.36l-54.88,31.7a2.58,2.58,0,0,0-.91,1l-3.38-2a2.55,2.55,0,0,1,.9-1l54.89-31.7a2.87,2.87,0,0,1,2.57,0l.81.47A2.82,2.82,0,0,1,344.47,159.77Z" transform="translate(-13.43 -17.6)"/><path id="_Path_12" data-name="&lt;Path&gt;" class="cls-15" d="M343.24,159.41l-54.89,31.7a2.84,2.84,0,0,0-1.28,2.22v52.3c0,.82.57,1.15,1.28.74l54.89-31.7a2.84,2.84,0,0,0,1.28-2.22v-52.3C344.52,159.33,343.95,159,343.24,159.41Z" transform="translate(-13.43 -17.6)"/></g><g id="_Group_5" data-name="&lt;Group&gt;"><polygon id="_Path_13" data-name="&lt;Path&gt;" class="cls-3" points="277.02 176.2 327.71 146.93 327.71 193.79 277.02 223.06 277.02 176.2"/><polygon id="_Path_14" data-name="&lt;Path&gt;" class="cls-16" points="277.02 176.2 327.71 146.93 327.71 193.79 277.02 223.06 277.02 176.2"/></g><polygon id="_Path_15" data-name="&lt;Path&gt;" class="cls-3" points="277.02 207.44 291.43 182.56 311.16 197.28 306.36 191.96 316.83 178.08 327.71 184.99 327.71 193.79 277.02 223.06 277.02 207.44"/><path id="_Path_16" data-name="&lt;Path&gt;" class="cls-3" d="M325.91,181.63a7.48,7.48,0,0,0-3.38,5.86c0,2.16,1.51,3,3.38,2a7.48,7.48,0,0,0,3.38-5.86C329.29,181.42,327.78,180.55,325.91,181.63Z" transform="translate(-13.43 -17.6)"/></g><g id="Colors"><g id="Shadow-11" data-name="Shadow"><path class="cls-5" d="M255.14,118.21V137a5.59,5.59,0,0,1-2.53,4.38l-16.29,9.41a3.23,3.23,0,0,1-.61.26,1.93,1.93,0,0,1-.33.11l-.07,0a3.65,3.65,0,0,1-.46.1,4,4,0,0,0,.48-.12l.36-.11-.17,0-.15,0c-.93.1-1.58-.56-1.58-1.79V130.53a5.09,5.09,0,0,1,.74-2.48,5,5,0,0,1,1.79-1.89l16.29-9.41c1.25-.73,2.28-.28,2.48,1A3,3,0,0,1,255.14,118.21Z" transform="translate(-13.43 -17.6)"/><path class="cls-5" d="M255.14,155.81v18.81a5.58,5.58,0,0,1-2.53,4.38l-16.29,9.41a2.58,2.58,0,0,1-.46.22l-.34.09-.15,0c-.93.09-1.58-.57-1.58-1.8V168.14a5.62,5.62,0,0,1,2.53-4.38l16.29-9.41c1.23-.71,2.26-.28,2.47.93a.41.41,0,0,1,0,.1A3.35,3.35,0,0,1,255.14,155.81Z" transform="translate(-13.43 -17.6)"/><path class="cls-5" d="M255.14,193.43v18.81a5.58,5.58,0,0,1-2.53,4.38L236.32,226a3.23,3.23,0,0,1-.61.26l-.17.06.15-.06-.17,0-.15,0c-.93.1-1.58-.56-1.58-1.79V205.76a5.62,5.62,0,0,1,2.53-4.38L252.61,192c1.25-.72,2.28-.27,2.48,1A3,3,0,0,1,255.14,193.43Z" transform="translate(-13.43 -17.6)"/><path class="cls-5" d="M255.14,231v18.81a5.56,5.56,0,0,1-2.53,4.37l-16.29,9.42a3.24,3.24,0,0,1-.61.26,1.94,1.94,0,0,1-.33.11l-.07,0a.55.55,0,0,1-.18,0l.2-.06.36-.11-.17,0-.15,0c-.93.09-1.58-.57-1.58-1.79V243.36a5.15,5.15,0,0,1,.74-2.49,5.1,5.1,0,0,1,1.79-1.89l16.29-9.41c1.26-.73,2.29-.27,2.49,1A3.15,3.15,0,0,1,255.14,231Z" transform="translate(-13.43 -17.6)"/></g><g id="_Group_6" data-name="&lt;Group&gt;"><path id="_Path_17" data-name="&lt;Path&gt;" class="cls-3" d="M266.19,123.56a5.59,5.59,0,0,0-2.53-4.38L261.6,118a5.59,5.59,0,0,0-5.06,0l-16.29,9.41a5.59,5.59,0,0,0-2.53,4.38v18.81a5.59,5.59,0,0,0,2.53,4.38l2.06,1.19a3.88,3.88,0,0,0,.53.25l.21.07.37.11.3.06.32.05.36,0h.87l.46-.05.13,0,.49-.11.06,0a4.22,4.22,0,0,0,.94-.38l16.29-9.41a5.59,5.59,0,0,0,2.53-4.38Z" transform="translate(-13.43 -17.6)"/><path id="_Path_18" data-name="&lt;Path&gt;" class="cls-17" d="M266.16,123.13c-.18-1.3-1.23-1.77-2.49-1l-16.3,9.41a5.12,5.12,0,0,0-1.78,1.89l-7.12-4.11a5.2,5.2,0,0,1,1.79-1.89L256.54,118a5.58,5.58,0,0,1,5.06,0l2.06,1.19A5.63,5.63,0,0,1,266.16,123.13Z" transform="translate(-13.43 -17.6)"/><path id="_Path_19" data-name="&lt;Path&gt;" class="cls-5" d="M246.91,156.37l-.16.06-.37.12a4.91,4.91,0,0,1-1,.2h0l-.5,0a5.18,5.18,0,0,1-2.53-.6L240.25,155a5.61,5.61,0,0,1-2.53-4.38V131.77a4.72,4.72,0,0,1,.31-1.57q.12-.32.27-.62l.17-.31,7.12,4.11a5.11,5.11,0,0,0-.74,2.49V154.7c0,1.22.65,1.89,1.58,1.79l.16,0Z" transform="translate(-13.43 -17.6)"/></g><g id="_Group_7" data-name="&lt;Group&gt;"><path id="_Path_20" data-name="&lt;Path&gt;" class="cls-18" d="M266.19,161.17a5.59,5.59,0,0,0-2.53-4.38l-2.06-1.19a5.59,5.59,0,0,0-5.06,0L240.25,165a5.59,5.59,0,0,0-2.53,4.38V188.2a5.59,5.59,0,0,0,2.53,4.38l2.06,1.19a3.87,3.87,0,0,0,.53.25l.21.07.37.11.3.06.32.05.36,0h.87l.46-.05.13,0,.49-.11.06,0a4.22,4.22,0,0,0,.94-.38l16.29-9.41a5.59,5.59,0,0,0,2.53-4.38Z" transform="translate(-13.43 -17.6)"/><path id="_Path_21" data-name="&lt;Path&gt;" class="cls-17" d="M266.16,160.74c-.18-1.3-1.23-1.77-2.49-1l-16.3,9.41a5.12,5.12,0,0,0-1.78,1.89l-7.12-4.11a5.2,5.2,0,0,1,1.79-1.89l16.29-9.41a5.58,5.58,0,0,1,5.06,0l2.06,1.19A5.63,5.63,0,0,1,266.16,160.74Z" transform="translate(-13.43 -17.6)"/><path id="_Path_22" data-name="&lt;Path&gt;" class="cls-5" d="M246.91,194l-.16.06-.37.12a4.9,4.9,0,0,1-1,.2h0l-.5,0a5.18,5.18,0,0,1-2.53-.6l-2.05-1.19a5.61,5.61,0,0,1-2.53-4.38V169.39a4.72,4.72,0,0,1,.31-1.57q.12-.32.27-.62l.17-.31,7.12,4.11a5.11,5.11,0,0,0-.74,2.49v18.81c0,1.22.65,1.89,1.58,1.79l.16,0Z" transform="translate(-13.43 -17.6)"/></g><g id="_Group_8" data-name="&lt;Group&gt;"><path id="_Path_23" data-name="&lt;Path&gt;" class="cls-19" d="M266.19,198.78a5.59,5.59,0,0,0-2.53-4.38l-2.06-1.19a5.59,5.59,0,0,0-5.06,0l-16.29,9.41a5.59,5.59,0,0,0-2.53,4.38v18.81a5.59,5.59,0,0,0,2.53,4.38l2.06,1.19a3.89,3.89,0,0,0,.53.25l.21.07.37.11.3.06.32.05.36,0h.87l.46-.05.13,0,.49-.11.06,0a4.22,4.22,0,0,0,.94-.38L263.66,222a5.59,5.59,0,0,0,2.53-4.38Z" transform="translate(-13.43 -17.6)"/><path id="_Path_24" data-name="&lt;Path&gt;" class="cls-20" d="M266.16,198.35c-.18-1.3-1.23-1.77-2.49-1l-16.3,9.41a5.12,5.12,0,0,0-1.78,1.89l-7.12-4.11a5.2,5.2,0,0,1,1.79-1.89l16.29-9.41a5.58,5.58,0,0,1,5.06,0l2.06,1.19A5.63,5.63,0,0,1,266.16,198.35Z" transform="translate(-13.43 -17.6)"/><path id="_Path_25" data-name="&lt;Path&gt;" class="cls-6" d="M246.91,231.59l-.16.06-.37.12a4.91,4.91,0,0,1-1,.2h0l-.5,0a5.18,5.18,0,0,1-2.53-.6l-2.05-1.19a5.61,5.61,0,0,1-2.53-4.38V207a4.72,4.72,0,0,1,.31-1.57q.12-.32.27-.62l.17-.31,7.12,4.11a5.11,5.11,0,0,0-.74,2.49v18.81c0,1.22.65,1.89,1.58,1.79l.16,0Z" transform="translate(-13.43 -17.6)"/></g><g id="_Group_9" data-name="&lt;Group&gt;"><path id="_Path_26" data-name="&lt;Path&gt;" class="cls-11" d="M266.19,236.39a5.59,5.59,0,0,0-2.53-4.38l-2.06-1.19a5.59,5.59,0,0,0-5.06,0l-16.29,9.41a5.59,5.59,0,0,0-2.53,4.38v18.81a5.59,5.59,0,0,0,2.53,4.38l2.06,1.19a3.89,3.89,0,0,0,.53.25l.21.07.37.11.3.06.32.05.36,0h.87l.46-.05.13,0,.49-.11.06,0a4.22,4.22,0,0,0,.94-.38l16.29-9.41a5.59,5.59,0,0,0,2.53-4.38Z" transform="translate(-13.43 -17.6)"/><path id="_Path_27" data-name="&lt;Path&gt;" class="cls-21" d="M266.16,236c-.18-1.3-1.23-1.77-2.49-1l-16.3,9.41a5.12,5.12,0,0,0-1.78,1.89l-7.12-4.11a5.2,5.2,0,0,1,1.79-1.89l16.29-9.41a5.58,5.58,0,0,1,5.06,0l2.06,1.19A5.63,5.63,0,0,1,266.16,236Z" transform="translate(-13.43 -17.6)"/><path id="_Path_28" data-name="&lt;Path&gt;" class="cls-7" d="M246.91,269.2l-.16.06-.37.12a4.9,4.9,0,0,1-1,.2h0l-.5,0a5.18,5.18,0,0,1-2.53-.6l-2.05-1.19a5.61,5.61,0,0,1-2.53-4.38V244.61A4.72,4.72,0,0,1,238,243q.12-.32.27-.62l.17-.31,7.12,4.11a5.11,5.11,0,0,0-.74,2.49v18.81c0,1.22.65,1.89,1.58,1.79l.16,0Z" transform="translate(-13.43 -17.6)"/></g></g><g id="Text"><polyline class="cls-22" points="144.76 277.27 154.71 260.03 197.84 235.13"/><path class="cls-13" d="M174,268.46a3.79,3.79,0,0,1,1.77-2.94l26.32-15.2c1-.56,1.77-.16,1.77.89a3.79,3.79,0,0,1-1.77,2.94l-26.32,15.2C174.81,269.92,174,269.52,174,268.46Z" transform="translate(-13.43 -17.6)"/><path class="cls-13" d="M172.46,278.95l11.78-6.8c.55-.32,1-.09,1,.51a2.15,2.15,0,0,1-1,1.66l-11.78,6.8c-.55.32-1,.09-1-.51A2.15,2.15,0,0,1,172.46,278.95Z" transform="translate(-13.43 -17.6)"/><path class="cls-13" d="M187.18,270.45l10.89-6.29c.55-.32,1-.09,1,.51a2.15,2.15,0,0,1-1,1.66l-10.89,6.29c-.55.32-1,.09-1-.51A2.15,2.15,0,0,1,187.18,270.45Z" transform="translate(-13.43 -17.6)"/><path class="cls-13" d="M201.08,262.42l7.77-4.49c.55-.32,1-.09,1,.51a2.15,2.15,0,0,1-1,1.66l-7.77,4.49c-.55.32-1,.09-1-.51A2.15,2.15,0,0,1,201.08,262.42Z" transform="translate(-13.43 -17.6)"/><path class="cls-13" d="M172.46,285.45l22.21-12.82c.55-.32,1-.09,1,.51a2.15,2.15,0,0,1-1,1.66l-22.21,12.82c-.55.32-1,.09-1-.51A2.15,2.15,0,0,1,172.46,285.45Z" transform="translate(-13.43 -17.6)"/><path class="cls-13" d="M197.89,270.77l10.63-6.13c.55-.32,1-.09,1,.51a2.15,2.15,0,0,1-1,1.66l-10.63,6.13c-.55.32-1,.09-1-.51A2.15,2.15,0,0,1,197.89,270.77Z" transform="translate(-13.43 -17.6)"/><polyline class="cls-22" points="144.76 185.31 154.71 168.07 197.84 143.17"/><path class="cls-13" d="M174,176.5a3.79,3.79,0,0,1,1.77-2.94l26.32-15.2c1-.56,1.77-.16,1.77.89a3.79,3.79,0,0,1-1.77,2.94l-26.32,15.2C174.81,178,174,177.56,174,176.5Z" transform="translate(-13.43 -17.6)"/><path class="cls-13" d="M172.46,187l11.78-6.8c.55-.32,1-.09,1,.51a2.15,2.15,0,0,1-1,1.66l-11.78,6.8c-.55.32-1,.09-1-.51A2.15,2.15,0,0,1,172.46,187Z" transform="translate(-13.43 -17.6)"/><path class="cls-13" d="M187.18,178.49l10.89-6.29c.55-.32,1-.09,1,.51a2.15,2.15,0,0,1-1,1.66l-10.89,6.29c-.55.32-1,.09-1-.51A2.15,2.15,0,0,1,187.18,178.49Z" transform="translate(-13.43 -17.6)"/><path class="cls-13" d="M201.08,170.45l7.77-4.49c.55-.32,1-.09,1,.51a2.15,2.15,0,0,1-1,1.66l-7.77,4.49c-.55.32-1,.09-1-.51A2.15,2.15,0,0,1,201.08,170.45Z" transform="translate(-13.43 -17.6)"/><path class="cls-13" d="M172.46,193.49l22.21-12.82c.55-.32,1-.09,1,.51a2.15,2.15,0,0,1-1,1.66l-22.21,12.82c-.55.32-1,.09-1-.51A2.15,2.15,0,0,1,172.46,193.49Z" transform="translate(-13.43 -17.6)"/><path class="cls-13" d="M197.89,178.8l10.63-6.13c.55-.32,1-.09,1,.51a2.15,2.15,0,0,1-1,1.66L197.89,181c-.55.32-1,.09-1-.51A2.15,2.15,0,0,1,197.89,178.8Z" transform="translate(-13.43 -17.6)"/><polyline class="cls-22" points="144.76 231.05 154.71 213.81 197.84 188.91"/><path class="cls-13" d="M174,222.24a3.79,3.79,0,0,1,1.77-2.94l26.32-15.2c1-.56,1.77-.16,1.77.89a3.79,3.79,0,0,1-1.77,2.94l-26.32,15.2C174.81,223.7,174,223.3,174,222.24Z" transform="translate(-13.43 -17.6)"/><path class="cls-13" d="M172.47,233l4.63-2.67c.55-.32,1-.09,1,.51a2.15,2.15,0,0,1-1,1.66l-4.63,2.67c-.55.32-1,.09-1-.51A2.15,2.15,0,0,1,172.47,233Z" transform="translate(-13.43 -17.6)"/><path class="cls-13" d="M180.52,228.31l11.78-6.8c.55-.32,1-.09,1,.51a2.15,2.15,0,0,1-1,1.66l-11.78,6.8c-.55.32-1,.09-1-.51A2.15,2.15,0,0,1,180.52,228.31Z" transform="translate(-13.43 -17.6)"/><path class="cls-13" d="M195.24,219.82l13.29-7.67c.55-.32,1-.09,1,.51a2.15,2.15,0,0,1-1,1.66L195.24,222c-.55.32-1,.09-1-.51A2.15,2.15,0,0,1,195.24,219.82Z" transform="translate(-13.43 -17.6)"/><path class="cls-13" d="M172.46,239.47l11.78-6.8c.55-.32,1-.09,1,.51a2.15,2.15,0,0,1-1,1.66l-11.78,6.8c-.55.32-1,.09-1-.51A2.15,2.15,0,0,1,172.46,239.47Z" transform="translate(-13.43 -17.6)"/><path class="cls-13" d="M187.18,231l10.89-6.29c.55-.32,1-.09,1,.51a2.15,2.15,0,0,1-1,1.66l-10.89,6.29c-.55.32-1,.09-1-.51A2.15,2.15,0,0,1,187.18,231Z" transform="translate(-13.43 -17.6)"/><path class="cls-13" d="M201.08,222.94l7.77-4.49c.55-.32,1-.09,1,.51a2.15,2.15,0,0,1-1,1.66l-7.77,4.49c-.55.32-1,.09-1-.51A2.15,2.15,0,0,1,201.08,222.94Z" transform="translate(-13.43 -17.6)"/></g><path class="cls-13" d="M100.51,179l3.23-10.51.23-.55a1.18,1.18,0,0,1,.5-.58l1.16-.67a.25.25,0,0,1,.32,0,.56.56,0,0,1,.14.42V184a1.34,1.34,0,0,1-.14.58.85.85,0,0,1-.32.4l-1.38.8a.25.25,0,0,1-.32,0,.56.56,0,0,1-.14-.42V175.12l-2.21,7.17a4.34,4.34,0,0,1-.24.57,1,1,0,0,1-.39.45l-.89.51a.31.31,0,0,1-.39,0,1,1,0,0,1-.24-.3l-2.21-4.62v10.24a1.32,1.32,0,0,1-.14.58.85.85,0,0,1-.32.4l-1.38.8a.25.25,0,0,1-.32,0,.56.56,0,0,1-.14-.42V173.56a1.33,1.33,0,0,1,.14-.58.85.85,0,0,1,.32-.4l1.16-.67q.34-.2.5,0l.23.29Z" transform="translate(-13.43 -17.6)"/><path class="cls-13" d="M112.13,180.53l-3.37-10.05a.81.81,0,0,1,0-.17,1.34,1.34,0,0,1,.14-.58.86.86,0,0,1,.32-.4l1.27-.74a.3.3,0,0,1,.36,0,.59.59,0,0,1,.2.3l2.26,6.79,2.26-9.4a2.2,2.2,0,0,1,.2-.54,1,1,0,0,1,.36-.42l1.28-.74a.25.25,0,0,1,.32,0,.56.56,0,0,1,.14.42,1.11,1.11,0,0,1,0,.19l-4.78,19.84a2.23,2.23,0,0,1-.2.54,1,1,0,0,1-.36.42l-1.28.74a.25.25,0,0,1-.32,0,.56.56,0,0,1-.14-.42,1,1,0,0,1,0-.19Z" transform="translate(-13.43 -17.6)"/><path class="cls-13" d="M129.78,152.73q2.06-1.19,3.2-.35t1.14,3.72a10.75,10.75,0,0,1-1.14,5.06,8.16,8.16,0,0,1-3.2,3.37l-2.72,1.57v5.84a1.34,1.34,0,0,1-.14.58.85.85,0,0,1-.32.4l-1.38.8a.25.25,0,0,1-.32,0,.56.56,0,0,1-.14-.42V156.34a1.34,1.34,0,0,1,.14-.58.87.87,0,0,1,.32-.4Zm-2.72,10.09,2.64-1.52a4.1,4.1,0,0,0,2.13-3.87q0-1.47-.58-1.7a1.85,1.85,0,0,0-1.55.33l-2.64,1.52Z" transform="translate(-13.43 -17.6)"/><path class="cls-13" d="M136.1,160.61a15.11,15.11,0,0,1,.29-2.93,13.66,13.66,0,0,1,.83-2.73,10.26,10.26,0,0,1,1.32-2.27,6,6,0,0,1,1.73-1.55,2.84,2.84,0,0,1,1.73-.46,2.08,2.08,0,0,1,1.32.68,3.94,3.94,0,0,1,.84,1.63,8.72,8.72,0,0,1,.3,2.38v1.18a1.36,1.36,0,0,1-.14.58.86.86,0,0,1-.32.4l-5.68,3.28a2.43,2.43,0,0,0,.16,1,1.08,1.08,0,0,0,.43.52,1,1,0,0,0,.63.11,2,2,0,0,0,.73-.27,3.8,3.8,0,0,0,.88-.68,4.08,4.08,0,0,0,.56-.76,4,4,0,0,1,.31-.47,1.17,1.17,0,0,1,.32-.27l1.36-.79a.26.26,0,0,1,.33,0,.49.49,0,0,1,.13.42,4.33,4.33,0,0,1-.26,1.1,8.76,8.76,0,0,1-.74,1.55,10.65,10.65,0,0,1-1.22,1.65,6.74,6.74,0,0,1-1.68,1.36,3,3,0,0,1-1.73.49,1.91,1.91,0,0,1-1.32-.69,4.27,4.27,0,0,1-.83-1.76A11,11,0,0,1,136.1,160.61Zm4.17-6.34a3.05,3.05,0,0,0-.84.71,4.58,4.58,0,0,0-.59.92,5.16,5.16,0,0,0-.37,1,5.87,5.87,0,0,0-.16.92l3.85-2.22a5,5,0,0,0-.13-.75,1.35,1.35,0,0,0-.31-.61.81.81,0,0,0-.56-.25A1.7,1.7,0,0,0,140.28,154.27Z" transform="translate(-13.43 -17.6)"/><path class="cls-13" d="M151.3,148.17a3.51,3.51,0,0,0-1.47,1.54,6,6,0,0,0-.45,2.53V159a1.35,1.35,0,0,1-.14.58.86.86,0,0,1-.32.4l-1.29.75a.24.24,0,0,1-.32,0,.56.56,0,0,1-.14-.42V148.12a1.34,1.34,0,0,1,.14-.58.85.85,0,0,1,.32-.4l1.29-.75a.25.25,0,0,1,.32,0,.57.57,0,0,1,.14.42v.6a8.56,8.56,0,0,1,.94-1.51,4.58,4.58,0,0,1,1.32-1.1l.77-.44a.25.25,0,0,1,.32,0,.56.56,0,0,1,.14.42v1.73a1.31,1.31,0,0,1-.14.58.85.85,0,0,1-.32.4Z" transform="translate(-13.43 -17.6)"/><path class="cls-13" d="M159.95,149.75a.55.55,0,0,0-.12-.4.57.57,0,0,0-.42-.1,4.47,4.47,0,0,0-.79.14l-1.26.31a3,3,0,0,1-1.24.06,1.4,1.4,0,0,1-.79-.46,2.08,2.08,0,0,1-.42-1,7.17,7.17,0,0,1-.12-1.38,6.52,6.52,0,0,1,.24-1.68,8.13,8.13,0,0,1,.69-1.75,8.39,8.39,0,0,1,1.1-1.59,5.83,5.83,0,0,1,1.48-1.22,4.24,4.24,0,0,1,1.49-.57,2,2,0,0,1,1.11.12,1.5,1.5,0,0,1,.72.67,2.52,2.52,0,0,1,.29,1.08,1.14,1.14,0,0,1-.13.57.91.91,0,0,1-.33.4l-1.31.76c-.17.1-.3.12-.38.08l-.28-.16a.76.76,0,0,0-.41-.09,1.8,1.8,0,0,0-.77.3,3.43,3.43,0,0,0-.9.76,1.6,1.6,0,0,0-.39,1.07.78.78,0,0,0,.09.43.4.4,0,0,0,.36.15,3.5,3.5,0,0,0,.73-.09l1.22-.3q1.51-.38,2.14.33a3.4,3.4,0,0,1,.62,2.28,6.12,6.12,0,0,1-.25,1.68,8.37,8.37,0,0,1-.74,1.77,8.52,8.52,0,0,1-1.19,1.63,6.81,6.81,0,0,1-1.59,1.27,4.17,4.17,0,0,1-1.59.59,2,2,0,0,1-1.17-.18,1.68,1.68,0,0,1-.73-.76,2.64,2.64,0,0,1-.27-1.13,1.13,1.13,0,0,1,.13-.57.91.91,0,0,1,.33-.4l1.31-.76c.17-.1.3-.11.38,0l.29.25a.74.74,0,0,0,.45.16,1.82,1.82,0,0,0,.87-.32,4.79,4.79,0,0,0,.53-.36,4,4,0,0,0,.5-.46,2.69,2.69,0,0,0,.38-.54A1.21,1.21,0,0,0,159.95,149.75Z" transform="translate(-13.43 -17.6)"/><path class="cls-13" d="M168.72,134.7a3.4,3.4,0,0,1,1.69-.53,2,2,0,0,1,1.31.47,3.2,3.2,0,0,1,.88,1.32,6.36,6.36,0,0,1,.38,2c0,.15,0,.35,0,.59V140c0,.24,0,.44,0,.6a12.4,12.4,0,0,1-.39,2.48,11.73,11.73,0,0,1-.88,2.33,9.85,9.85,0,0,1-1.31,2,6.51,6.51,0,0,1-1.69,1.42,3.37,3.37,0,0,1-1.69.53,2,2,0,0,1-1.31-.46,3,3,0,0,1-.88-1.32,6.91,6.91,0,0,1-.39-2c0-.15,0-.34,0-.57s0-.47,0-.72,0-.49,0-.74,0-.45,0-.62a11.29,11.29,0,0,1,.38-2.47,12.31,12.31,0,0,1,.88-2.34,9.75,9.75,0,0,1,1.31-2A6.58,6.58,0,0,1,168.72,134.7Zm2.06,4.71a3.53,3.53,0,0,0-.25-1.21,1.15,1.15,0,0,0-.48-.57.91.91,0,0,0-.63-.07,2.56,2.56,0,0,0-.7.28,3.94,3.94,0,0,0-.7.52,3.58,3.58,0,0,0-.63.79,5,5,0,0,0-.49,1.13,6.65,6.65,0,0,0-.25,1.49c0,.15,0,.32,0,.54s0,.43,0,.66,0,.45,0,.66,0,.38,0,.5a3.55,3.55,0,0,0,.25,1.21,1.13,1.13,0,0,0,.49.57.89.89,0,0,0,.63.07,2.49,2.49,0,0,0,.7-.28,3.81,3.81,0,0,0,.7-.52,3.6,3.6,0,0,0,.63-.8,4.93,4.93,0,0,0,.48-1.13,6.55,6.55,0,0,0,.25-1.49c0-.13,0-.3,0-.52v-1.32C170.8,139.71,170.79,139.54,170.78,139.41Z" transform="translate(-13.43 -17.6)"/><path class="cls-13" d="M184.11,139a1.34,1.34,0,0,1-.14.58.86.86,0,0,1-.32.4l-1.29.75a.25.25,0,0,1-.32,0,.56.56,0,0,1-.14-.42v-6.65a4,4,0,0,0-.48-2.24q-.48-.67-1.46-.1a3.49,3.49,0,0,0-1.42,1.76,7.24,7.24,0,0,0-.52,2.81v6.65a1.36,1.36,0,0,1-.14.58.87.87,0,0,1-.32.4l-1.29.75a.25.25,0,0,1-.32,0,.56.56,0,0,1-.14-.42V131.58a1.34,1.34,0,0,1,.14-.58.88.88,0,0,1,.32-.4l1.29-.75a.25.25,0,0,1,.32,0,.56.56,0,0,1,.14.42v.6a9.77,9.77,0,0,1,1-1.73,4.71,4.71,0,0,1,1.41-1.26,2.86,2.86,0,0,1,1.74-.5,1.6,1.6,0,0,1,1.12.69,3.89,3.89,0,0,1,.6,1.6,12.84,12.84,0,0,1,.18,2.24Z" transform="translate(-13.43 -17.6)"/><path class="cls-13" d="M187.22,127.64a7.39,7.39,0,0,1,.31-1.36,8.79,8.79,0,0,1,.7-1.58,8.64,8.64,0,0,1,1.11-1.54,6.16,6.16,0,0,1,1.52-1.23,3.75,3.75,0,0,1,1.57-.55,1.69,1.69,0,0,1,1.2.34,2.5,2.5,0,0,1,.77,1.27,7.63,7.63,0,0,1,.27,2.21v7.7a1.34,1.34,0,0,1-.14.58.86.86,0,0,1-.32.4l-1.29.75a.25.25,0,0,1-.32,0,.56.56,0,0,1-.14-.42v-.86a7.83,7.83,0,0,1-1,1.89,5.46,5.46,0,0,1-1.71,1.52,3,3,0,0,1-1.31.46,1.34,1.34,0,0,1-1-.29,2.07,2.07,0,0,1-.6-.95,4.72,4.72,0,0,1-.21-1.51,6.71,6.71,0,0,1,.83-3.31,9.53,9.53,0,0,1,2.23-2.68l2.77-2.33q0-1.08-.46-1.25a1.32,1.32,0,0,0-1.14.21,2.14,2.14,0,0,0-.66.57,5.1,5.1,0,0,0-.46.76,2.52,2.52,0,0,1-.28.45,1.06,1.06,0,0,1-.28.24l-1.58.91a.25.25,0,0,1-.29,0C187.23,127.95,187.2,127.82,187.22,127.64Zm2.84,5.75a4.1,4.1,0,0,0,1-.84,5.27,5.27,0,0,0,.76-1.1,5.53,5.53,0,0,0,.46-1.21,4.77,4.77,0,0,0,.15-1.16v-.26l-2.31,2a4.43,4.43,0,0,0-1,1.12,2.22,2.22,0,0,0-.31,1.13c0,.37.12.57.37.6A1.37,1.37,0,0,0,190.06,133.38Z" transform="translate(-13.43 -17.6)"/><path class="cls-13" d="M200,129.82a1.33,1.33,0,0,1-.14.58.85.85,0,0,1-.32.4l-1.29.75a.25.25,0,0,1-.32,0,.56.56,0,0,1-.14-.42V113.91a1.33,1.33,0,0,1,.14-.57.85.85,0,0,1,.32-.4l1.29-.75a.25.25,0,0,1,.32,0,.56.56,0,0,1,.14.42Z" transform="translate(-13.43 -17.6)"/><path class="cls-13" d="M205,109a.25.25,0,0,1,.32,0,.55.55,0,0,1,.14.42v2a1.34,1.34,0,0,1-.14.58.88.88,0,0,1-.32.4l-1.46.85a.25.25,0,0,1-.32,0,.56.56,0,0,1-.14-.42v-2a1.33,1.33,0,0,1,.14-.58.86.86,0,0,1,.32-.4Zm.38,17.68a1.35,1.35,0,0,1-.14.58.86.86,0,0,1-.32.4l-1.29.75a.25.25,0,0,1-.32,0,.56.56,0,0,1-.14-.42V115.77a1.34,1.34,0,0,1,.14-.58.86.86,0,0,1,.32-.4L205,114a.25.25,0,0,1,.32,0,.57.57,0,0,1,.14.42Z" transform="translate(-13.43 -17.6)"/><path class="cls-13" d="M215.54,118.41a.24.24,0,0,1,.32,0,.55.55,0,0,1,.14.42v1.73a1.31,1.31,0,0,1-.14.58.85.85,0,0,1-.32.4l-6.91,4a.25.25,0,0,1-.32,0,.57.57,0,0,1-.14-.42v-1.78a2,2,0,0,1,.07-.55,4.22,4.22,0,0,1,.17-.48l4.25-9.56L208.8,115a.24.24,0,0,1-.32,0,.56.56,0,0,1-.14-.42V112.8a1.33,1.33,0,0,1,.14-.58.86.86,0,0,1,.32-.4l6.4-3.69a.25.25,0,0,1,.32,0,.56.56,0,0,1,.14.42v1.78a2,2,0,0,1-.08.52c-.05.18-.11.36-.16.51l-4.25,9.55Z" transform="translate(-13.43 -17.6)"/><path class="cls-13" d="M218.67,109.48a7.3,7.3,0,0,1,.32-1.36,8.7,8.7,0,0,1,.7-1.58,8.57,8.57,0,0,1,1.11-1.54,6.19,6.19,0,0,1,1.52-1.23,3.75,3.75,0,0,1,1.57-.55,1.69,1.69,0,0,1,1.2.34,2.48,2.48,0,0,1,.77,1.27,7.58,7.58,0,0,1,.27,2.21v7.7a1.35,1.35,0,0,1-.14.58.85.85,0,0,1-.32.4l-1.29.75a.25.25,0,0,1-.32,0,.56.56,0,0,1-.14-.42v-.86a7.88,7.88,0,0,1-1,1.89,5.46,5.46,0,0,1-1.71,1.52,3,3,0,0,1-1.31.46,1.34,1.34,0,0,1-1-.29,2.05,2.05,0,0,1-.6-.95,4.72,4.72,0,0,1-.21-1.51,6.7,6.7,0,0,1,.83-3.31,9.53,9.53,0,0,1,2.23-2.68l2.77-2.33q0-1.08-.46-1.25a1.32,1.32,0,0,0-1.14.21,2.15,2.15,0,0,0-.66.57,5,5,0,0,0-.46.76,2.52,2.52,0,0,1-.28.45,1.08,1.08,0,0,1-.28.24l-1.58.91a.25.25,0,0,1-.29,0C218.67,109.79,218.64,109.67,218.67,109.48Zm2.84,5.75a4.05,4.05,0,0,0,1-.84,5.33,5.33,0,0,0,.76-1.1,5.53,5.53,0,0,0,.46-1.21,4.77,4.77,0,0,0,.15-1.16v-.26l-2.31,2a4.42,4.42,0,0,0-1,1.12,2.22,2.22,0,0,0-.31,1.13q0,.55.37.6A1.37,1.37,0,0,0,221.51,115.23Z" transform="translate(-13.43 -17.6)"/><path class="cls-13" d="M232.14,107a1.75,1.75,0,0,0,.28,1.13q.28.32,1-.12l1-.6a.25.25,0,0,1,.32,0,.57.57,0,0,1,.14.42v1.73a1.36,1.36,0,0,1-.14.58.86.86,0,0,1-.32.4l-1.26.73q-1.6.92-2.46.23t-.86-3.16v-5.63l-1.12.65a.24.24,0,0,1-.32,0,.55.55,0,0,1-.14-.42v-1.73a1.34,1.34,0,0,1,.14-.58.87.87,0,0,1,.32-.4l1.12-.65V95.35a1.32,1.32,0,0,1,.14-.58.85.85,0,0,1,.32-.4l1.29-.75a.24.24,0,0,1,.32,0,.55.55,0,0,1,.14.42v4.27l2.2-1.27a.25.25,0,0,1,.32,0,.57.57,0,0,1,.14.42v1.73a1.35,1.35,0,0,1-.14.58.85.85,0,0,1-.32.4l-2.2,1.27Z" transform="translate(-13.43 -17.6)"/><path class="cls-13" d="M239.32,89.22a.24.24,0,0,1,.32,0,.55.55,0,0,1,.14.42v2a1.31,1.31,0,0,1-.14.58.87.87,0,0,1-.32.4l-1.46.84a.25.25,0,0,1-.32,0,.57.57,0,0,1-.14-.42V91a1.34,1.34,0,0,1,.14-.58.87.87,0,0,1,.32-.4Zm.37,17.68a1.34,1.34,0,0,1-.14.58.86.86,0,0,1-.32.4l-1.29.75a.25.25,0,0,1-.32,0,.56.56,0,0,1-.14-.42V96a1.34,1.34,0,0,1,.14-.58.86.86,0,0,1,.32-.4l1.29-.75a.25.25,0,0,1,.32,0,.57.57,0,0,1,.14.42Z" transform="translate(-13.43 -17.6)"/><path class="cls-13" d="M246.8,89.63a3.38,3.38,0,0,1,1.69-.53,2,2,0,0,1,1.31.47,3.19,3.19,0,0,1,.88,1.32,6.35,6.35,0,0,1,.38,2c0,.15,0,.35,0,.59V95c0,.24,0,.44,0,.6a12.42,12.42,0,0,1-.39,2.48,11.66,11.66,0,0,1-.88,2.33,9.86,9.86,0,0,1-1.31,2,6.55,6.55,0,0,1-1.69,1.42,3.39,3.39,0,0,1-1.69.53,2,2,0,0,1-1.31-.46,3,3,0,0,1-.88-1.32,7,7,0,0,1-.39-2c0-.15,0-.34,0-.57s0-.47,0-.72,0-.49,0-.74,0-.45,0-.62a11.29,11.29,0,0,1,.38-2.47,12.42,12.42,0,0,1,.88-2.34,9.69,9.69,0,0,1,1.31-2A6.53,6.53,0,0,1,246.8,89.63Zm2.06,4.71a3.49,3.49,0,0,0-.25-1.21,1.14,1.14,0,0,0-.48-.57.91.91,0,0,0-.63-.07,2.55,2.55,0,0,0-.7.28,3.88,3.88,0,0,0-.7.52,3.55,3.55,0,0,0-.63.79,5,5,0,0,0-.49,1.13,6.7,6.7,0,0,0-.25,1.49c0,.15,0,.33,0,.54s0,.43,0,.66,0,.45,0,.66,0,.38,0,.5a3.58,3.58,0,0,0,.25,1.21,1.14,1.14,0,0,0,.49.57.91.91,0,0,0,.63.07,2.54,2.54,0,0,0,.7-.28,3.86,3.86,0,0,0,.7-.52,3.55,3.55,0,0,0,.63-.79,4.93,4.93,0,0,0,.48-1.13,6.5,6.5,0,0,0,.25-1.49c0-.13,0-.3,0-.52V94.85C248.87,94.64,248.86,94.46,248.85,94.33Z" transform="translate(-13.43 -17.6)"/><path class="cls-13" d="M262.18,93.92a1.33,1.33,0,0,1-.14.58.85.85,0,0,1-.32.4l-1.29.75a.25.25,0,0,1-.32,0,.56.56,0,0,1-.14-.42V88.55a4,4,0,0,0-.48-2.24q-.48-.67-1.46-.1A3.5,3.5,0,0,0,256.6,88a7.24,7.24,0,0,0-.52,2.82v6.65a1.36,1.36,0,0,1-.14.58.86.86,0,0,1-.32.4l-1.29.75a.24.24,0,0,1-.32,0,.56.56,0,0,1-.14-.42V86.51a1.32,1.32,0,0,1,.14-.58.87.87,0,0,1,.32-.4l1.29-.75a.25.25,0,0,1,.32,0,.56.56,0,0,1,.14.42v.6a9.8,9.8,0,0,1,1-1.73,4.72,4.72,0,0,1,1.41-1.26,2.88,2.88,0,0,1,1.74-.5,1.6,1.6,0,0,1,1.12.69,3.87,3.87,0,0,1,.61,1.61,13,13,0,0,1,.18,2.24Z" transform="translate(-13.43 -17.6)"/></g></g><g id="Paint_Tools" data-name="Paint Tools"><g id="Paint"><path id="_Path_29" data-name="&lt;Path&gt;" class="cls-12" d="M380.11,235.38H349.54l1.38,21.74h0c0,2,1.29,4.05,3.94,5.62,5.3,3.14,13.94,3.23,19.31.21,2.71-1.52,4.06-3.55,4.06-5.58Z" transform="translate(-13.43 -17.6)"/><path id="_Path_30" data-name="&lt;Path&gt;" class="cls-11" d="M354.06,228.61c-6,3.39-6.07,9-.13,12.49s15.62,3.62,21.63.23,6.07-9,.13-12.49S360.07,225.23,354.06,228.61Z" transform="translate(-13.43 -17.6)"/><path id="_Path_31" data-name="&lt;Path&gt;" class="cls-23" d="M378.79,235.12a3.8,3.8,0,0,1-.22,1.2,7.4,7.4,0,0,1-3.66,3.86,22.63,22.63,0,0,1-20.31-.22,7.43,7.43,0,0,1-3.55-3.86,3.77,3.77,0,0,1-.22-1.28c0-1.86,1.4-3.66,3.88-5A22.64,22.64,0,0,1,375,230C377.47,231.44,378.81,233.26,378.79,235.12Z" transform="translate(-13.43 -17.6)"/><path class="cls-3" d="M364.89,237.54a20.64,20.64,0,0,0-10.17,2.31l-.15.09,0,0a22.63,22.63,0,0,0,20.31.22l.15-.09,0,0A20.8,20.8,0,0,0,364.89,237.54Z" transform="translate(-13.43 -17.6)"/><path id="_Path_32" data-name="&lt;Path&gt;" class="cls-23" d="M370.63,243.55c.6-.34,1.08-.05,1.07.63a2.38,2.38,0,0,1-1.1,1.85c-.6.34-1.08.05-1.07-.63A2.38,2.38,0,0,1,370.63,243.55Z" transform="translate(-13.43 -17.6)"/><g id="_Group_10" data-name="&lt;Group&gt;"><path id="_Path_33" data-name="&lt;Path&gt;" class="cls-2" d="M349.9,241.45c-1.32,3.38-2.34,8,.61,10.16l.48.33v1.43c-.39-.24-.79-.5-1.17-.79-4.39-3.25-1.7-10.36,0-13.82Z" transform="translate(-13.43 -17.6)"/><path id="_Path_34" data-name="&lt;Path&gt;" class="cls-2" d="M371.14,245.07c-.16.34-4.38,8.41-11.32,10a10.11,10.11,0,0,1-2.39.28,12.06,12.06,0,0,1-6.46-2v-1.43a10.54,10.54,0,0,0,8.57,2c6.4-1.5,10.5-9.36,10.53-9.43a.59.59,0,0,1,.8-.25A.58.58,0,0,1,371.14,245.07Z" transform="translate(-13.43 -17.6)"/></g></g><g id="Canvas"><path id="_Path_35" data-name="&lt;Path&gt;" class="cls-1" d="M429.11,289.29a1.72,1.72,0,0,0-1-1.41L391,266.43a5.4,5.4,0,0,0-4.89,0l-56.24,32.47a1.72,1.72,0,0,0-1,1.41c0,.51,0,3.9,0,4.41a1.72,1.72,0,0,0,1,1.41L367,327.58a5.4,5.4,0,0,0,4.89,0l56.24-32.47a1.72,1.72,0,0,0,1-1.41C429.11,293.19,429.11,289.8,429.11,289.29Z" transform="translate(-13.43 -17.6)"/><path id="_Path_36" data-name="&lt;Path&gt;" class="cls-24" d="M369.41,323.75v4.41a5.05,5.05,0,0,1-2.45-.58l-37.14-21.45a1.69,1.69,0,0,1-1-1.41v-4.41a1.7,1.7,0,0,0,1,1.41L367,323.17A5,5,0,0,0,369.41,323.75Z" transform="translate(-13.43 -17.6)"/><path id="_Path_37" data-name="&lt;Path&gt;" class="cls-15" d="M329.82,298.91l56.24-32.47a5.4,5.4,0,0,1,4.89,0l37.14,21.44c1.35.78,1.35,2,0,2.82l-56.24,32.47a5.4,5.4,0,0,1-4.89,0l-37.14-21.44C328.48,300.95,328.48,299.69,329.82,298.91Z" transform="translate(-13.43 -17.6)"/><path id="_Path_38" data-name="&lt;Path&gt;" class="cls-3" d="M391,266.43a5.4,5.4,0,0,0-4.89,0l-56.24,32.47c-1.35.78-1.35,2,0,2.82l13.3,7.68h0s14,3.37,20-.53,7.3-9.6,14.45-13.25c10.64-5.43,21.09-1.81,33.81-3,14.32-1.3,14.92-5.84,14.92-5.84L414.48,280Z" transform="translate(-13.43 -17.6)"/><path id="_Path_39" data-name="&lt;Path&gt;" class="cls-3" d="M328.82,300.31v4.41a1.69,1.69,0,0,0,1,1.41l13.3,7.68v-4.41h0l-13.3-7.68A1.7,1.7,0,0,1,328.82,300.31Z" transform="translate(-13.43 -17.6)"/><path id="_Path_40" data-name="&lt;Path&gt;" class="cls-4" d="M328.82,300.31v4.41a1.69,1.69,0,0,0,1,1.41l13.3,7.68v-4.41h0l-13.3-7.68A1.7,1.7,0,0,1,328.82,300.31Z" transform="translate(-13.43 -17.6)"/></g><g id="Brush"><g id="_Group_11" data-name="&lt;Group&gt;"><path id="_Path_41" data-name="&lt;Path&gt;" class="cls-11" d="M421,268.42l-11.9-6.87a.9.9,0,0,1-.37-.83,2.82,2.82,0,0,1,1.28-2.21.9.9,0,0,1,.9-.09l11.9,6.87Z" transform="translate(-13.43 -17.6)"/><polygon id="_Path_42" data-name="&lt;Path&gt;" class="cls-12" points="406.35 245.93 402.74 248.02 407.61 250.83 409.41 247.7 406.35 245.93"/></g><g id="_Group_12" data-name="&lt;Group&gt;"><g id="_Group_13" data-name="&lt;Group&gt;"><g id="_Group_14" data-name="&lt;Group&gt;"><path id="_Path_43" data-name="&lt;Path&gt;" class="cls-12" d="M433.29,269.23l-2.42-1.4,2.42-1.4-5-2.88a6,6,0,0,0-5.43,0L418.64,266a2,2,0,0,0-1.12,1.47c0,.06,0,2.46,0,3a1.94,1.94,0,0,0,1.11,1.49l5,2.88Z" transform="translate(-13.43 -17.6)"/><path id="_Path_44" data-name="&lt;Path&gt;" class="cls-11" d="M418.64,266l4.25-2.46a6,6,0,0,1,5.43,0l5,2.88L423.61,272l-5-2.88C417.13,268.27,417.13,266.87,418.64,266Z" transform="translate(-13.43 -17.6)"/><polygon id="_Path_45" data-name="&lt;Path&gt;" class="cls-1" points="410.18 254.43 419.86 248.84 427.13 253.03 417.44 258.63 410.18 254.43"/><polygon id="_Path_46" data-name="&lt;Path&gt;" class="cls-24" points="410.18 254.43 417.44 258.63 417.44 261.42 410.18 257.23 410.18 254.43"/></g><polygon id="_Path_47" data-name="&lt;Path&gt;" class="cls-3" points="408.02 253.18 417.7 247.59 416.72 247.01 406.98 252.58 408.02 253.18"/><polygon id="_Path_48" data-name="&lt;Path&gt;" class="cls-3" points="408.02 253.18 408.02 255.98 406.98 255.37 406.98 252.58 408.02 253.18"/><polygon id="_Path_49" data-name="&lt;Path&gt;" class="cls-5" points="408.02 253.18 408.02 255.98 406.98 255.37 406.98 252.58 408.02 253.18"/></g><path id="_Path_50" data-name="&lt;Path&gt;" class="cls-3" d="M428.65,277.74s-1.33-1.71-.61-3.15l2.83,1.64V279Z" transform="translate(-13.43 -17.6)"/><path id="_Path_51" data-name="&lt;Path&gt;" class="cls-5" d="M428.65,277.74s-1.33-1.71-.61-3.15l2.83,1.64V279Z" transform="translate(-13.43 -17.6)"/><path id="_Path_52" data-name="&lt;Path&gt;" class="cls-3" d="M428,274.59a3.46,3.46,0,0,1,2-2.66c1.32-.57,4.12.6,5.28-1.3a3.52,3.52,0,0,0-.08-3.07l5.32,3.07-9.69,5.59Z" transform="translate(-13.43 -17.6)"/><polygon id="_Path_53" data-name="&lt;Path&gt;" class="cls-3" points="427.13 253.03 427.13 255.83 417.44 261.42 417.44 258.63 427.13 253.03"/><polygon id="_Path_54" data-name="&lt;Path&gt;" class="cls-25" points="427.13 253.03 427.13 255.83 417.44 261.42 417.44 258.63 427.13 253.03"/></g></g></g><g id="Light_Bulb" data-name="Light Bulb"><g id="Light"><g id="_Group_15" data-name="&lt;Group&gt;"><g id="_Group_16" data-name="&lt;Group&gt;"><g id="_Group_17" data-name="&lt;Group&gt;"><circle id="_Path_55" data-name="&lt;Path&gt;" class="cls-12" cx="400.4" cy="175" r="5.48"/></g><g id="_Group_18" data-name="&lt;Group&gt;"><path id="_Path_56" data-name="&lt;Path&gt;" class="cls-11" d="M407.26,193c-3.63-2.1-3.63-5.5,0-7.59a14.53,14.53,0,0,1,13.15,0c3.63,2.1,3.63,5.5,0,7.59A14.53,14.53,0,0,1,407.26,193Z" transform="translate(-13.43 -17.6)"/></g><g id="_Group_19" data-name="&lt;Group&gt;"><path id="_Path_57" data-name="&lt;Path&gt;" class="cls-12" d="M407.05,191c-3.74-2.16-3.74-5.66,0-7.83a15,15,0,0,1,13.56,0c3.74,2.16,3.74,5.67,0,7.83A15,15,0,0,1,407.05,191Z" transform="translate(-13.43 -17.6)"/></g><g id="_Group_20" data-name="&lt;Group&gt;"><path id="_Path_58" data-name="&lt;Path&gt;" class="cls-11" d="M406.85,188.93c-3.86-2.23-3.86-5.84,0-8.07a15.44,15.44,0,0,1,14,0c3.86,2.23,3.86,5.84,0,8.07A15.44,15.44,0,0,1,406.85,188.93Z" transform="translate(-13.43 -17.6)"/></g><g id="_Group_21" data-name="&lt;Group&gt;"><path id="_Path_59" data-name="&lt;Path&gt;" class="cls-12" d="M406.63,186.83c-4-2.3-4-6,0-8.31a15.92,15.92,0,0,1,14.4,0c4,2.3,4,6,0,8.31A15.92,15.92,0,0,1,406.63,186.83Z" transform="translate(-13.43 -17.6)"/></g><g id="_Group_22" data-name="&lt;Group&gt;"><path id="_Path_60" data-name="&lt;Path&gt;" class="cls-11" d="M406.48,184.62c-4.06-2.34-4.06-6.14,0-8.48a16.24,16.24,0,0,1,14.69,0c4.06,2.34,4.06,6.14,0,8.48A16.24,16.24,0,0,1,406.48,184.62Z" transform="translate(-13.43 -17.6)"/></g><g id="_Group_23" data-name="&lt;Group&gt;"><path id="_Path_61" data-name="&lt;Path&gt;" class="cls-24" d="M413.83,120.75a26.12,26.12,0,0,0-26.12,26.12c0,20.74,17.11,24.18,17.11,32.54,0,1.33.88,2.66,2.64,3.68a14.09,14.09,0,0,0,12.75,0c1.76-1,2.64-2.35,2.64-3.68h0c0-8.36,17.11-11.8,17.11-32.54A26.12,26.12,0,0,0,413.83,120.75Z" transform="translate(-13.43 -17.6)"/></g><g id="_Group_24" data-name="&lt;Group&gt;"><path id="_Path_62" data-name="&lt;Path&gt;" class="cls-2" d="M409,182c-2.65-1.53-2.65-4,0-5.53a10.59,10.59,0,0,1,9.58,0c2.65,1.53,2.65,4,0,5.53A10.59,10.59,0,0,1,409,182Z" transform="translate(-13.43 -17.6)"/></g></g></g><g id="_Group_25" data-name="&lt;Group&gt;"><path id="_Compound_Path_" data-name="&lt;Compound Path&gt;" class="cls-14" d="M417.32,178.55a.89.89,0,0,1-.89-.87,63.38,63.38,0,0,1,1.83-14.93,32.18,32.18,0,0,1,1.3-4.15,11.9,11.9,0,0,1-2.27-1.11,15.25,15.25,0,0,1-3.46-2.92,15.27,15.27,0,0,1-3.46,2.92,11.87,11.87,0,0,1-2.27,1.11,32,32,0,0,1,1.3,4.15,63.37,63.37,0,0,1,1.83,14.93.9.9,0,0,1-.9.87.89.89,0,0,1-.87-.91,62.86,62.86,0,0,0-1.78-14.47,29.24,29.24,0,0,0-1.32-4.14,5.54,5.54,0,0,1-4.94-1.45,2.84,2.84,0,0,1-.38-3.66,2.35,2.35,0,0,1,2.41-1c1.4.28,2.76,1.71,3.93,4.05a10,10,0,0,0,2.06-1,13.54,13.54,0,0,0,3.31-2.85c-1.21-1.86-1.66-3.7-1.29-5a2.49,2.49,0,0,1,4.77,0c.36,1.28-.08,3.12-1.29,5a13.53,13.53,0,0,0,3.31,2.85,10,10,0,0,0,2.06,1c1.17-2.34,2.53-3.78,3.93-4.05a2.37,2.37,0,0,1,2.41,1,2.84,2.84,0,0,1-.38,3.66A5.55,5.55,0,0,1,421.3,159a29.26,29.26,0,0,0-1.32,4.14,62.7,62.7,0,0,0-1.78,14.47.89.89,0,0,1-.87.91ZM403,154.65c-.15,0-.32.07-.51.33-.43.59.08,1.23.25,1.41a3.54,3.54,0,0,0,2.83.95c-.94-1.73-1.86-2.55-2.45-2.67Zm19.13,2.68a3.56,3.56,0,0,0,2.83-.95c.17-.18.68-.82.25-1.41-.25-.34-.46-.35-.64-.32C424,154.78,423.06,155.59,422.11,157.33Zm-8.28-9.16a.59.59,0,0,0-.68.48,4.27,4.27,0,0,0,.68,2.9,4.27,4.27,0,0,0,.68-2.9A.59.59,0,0,0,413.83,148.17Z" transform="translate(-13.43 -17.6)"/></g><g id="_Group_26" data-name="&lt;Group&gt;"><path id="_Path_63" data-name="&lt;Path&gt;" class="cls-1" d="M413.83,115.05a1.77,1.77,0,0,1-1.77-1.77V103.07a1.77,1.77,0,0,1,3.55,0v10.21A1.77,1.77,0,0,1,413.83,115.05Z" transform="translate(-13.43 -17.6)"/></g><g id="_Group_27" data-name="&lt;Group&gt;"><path id="_Path_64" data-name="&lt;Path&gt;" class="cls-1" d="M397.72,119.37a1.77,1.77,0,0,1-2.42-.65l-5.11-8.84a1.77,1.77,0,0,1,3.07-1.77l5.11,8.84A1.77,1.77,0,0,1,397.72,119.37Z" transform="translate(-13.43 -17.6)"/></g><g id="_Group_28" data-name="&lt;Group&gt;"><path id="_Path_65" data-name="&lt;Path&gt;" class="cls-1" d="M385.92,131.17a1.77,1.77,0,0,1-2.42.65l-8.84-5.11a1.77,1.77,0,1,1,1.77-3.07l8.84,5.11A1.77,1.77,0,0,1,385.92,131.17Z" transform="translate(-13.43 -17.6)"/></g><g id="_Group_29" data-name="&lt;Group&gt;"><path id="_Path_66" data-name="&lt;Path&gt;" class="cls-1" d="M381.6,147.28a1.77,1.77,0,0,1-1.77,1.77H369.62a1.77,1.77,0,1,1,0-3.55h10.21A1.77,1.77,0,0,1,381.6,147.28Z" transform="translate(-13.43 -17.6)"/></g><g id="_Group_30" data-name="&lt;Group&gt;"><path id="_Path_67" data-name="&lt;Path&gt;" class="cls-1" d="M385.92,163.4a1.77,1.77,0,0,1-.65,2.42l-8.84,5.11a1.77,1.77,0,0,1-1.77-3.07l8.84-5.11A1.77,1.77,0,0,1,385.92,163.4Z" transform="translate(-13.43 -17.6)"/></g><g id="_Group_31" data-name="&lt;Group&gt;"><path id="_Path_68" data-name="&lt;Path&gt;" class="cls-1" d="M441.75,163.4a1.77,1.77,0,0,1,2.42-.65l8.84,5.11a1.77,1.77,0,1,1-1.77,3.07l-8.84-5.11A1.77,1.77,0,0,1,441.75,163.4Z" transform="translate(-13.43 -17.6)"/></g><g id="_Group_32" data-name="&lt;Group&gt;"><path id="_Path_69" data-name="&lt;Path&gt;" class="cls-1" d="M446.06,147.28a1.77,1.77,0,0,1,1.77-1.77H458a1.77,1.77,0,0,1,0,3.55H447.84A1.77,1.77,0,0,1,446.06,147.28Z" transform="translate(-13.43 -17.6)"/></g><g id="_Group_33" data-name="&lt;Group&gt;"><path id="_Path_70" data-name="&lt;Path&gt;" class="cls-1" d="M441.75,131.17a1.77,1.77,0,0,1,.65-2.42l8.84-5.11a1.77,1.77,0,1,1,1.77,3.07l-8.84,5.11A1.77,1.77,0,0,1,441.75,131.17Z" transform="translate(-13.43 -17.6)"/></g><g id="_Group_34" data-name="&lt;Group&gt;"><path id="_Path_71" data-name="&lt;Path&gt;" class="cls-1" d="M429.95,119.37a1.77,1.77,0,0,1-.65-2.42l5.11-8.84a1.77,1.77,0,1,1,3.07,1.77l-5.11,8.84A1.77,1.77,0,0,1,429.95,119.37Z" transform="translate(-13.43 -17.6)"/></g></g></g><g id="Tools"><g id="Screwdriver"><path id="_Path_72" data-name="&lt;Path&gt;" class="cls-3" d="M280.7,331.29l6.88,11.92,23.22-13.41a3.34,3.34,0,0,0,1.55-3.21,10.77,10.77,0,0,0-4.87-8.44,3.42,3.42,0,0,0-3.45-.34h0Z" transform="translate(-13.43 -17.6)"/><path id="_Path_73" data-name="&lt;Path&gt;" class="cls-3" d="M279.32,333.76h0c-.1,1.82-2.67,2.21-2.67,2.21l4.87,8.44s1.62-2,3.25-1.21h0c2.4,1,4.26-.25,4.26-3.12a10.77,10.77,0,0,0-4.87-8.44C281.66,330.19,279.62,331.16,279.32,333.76Z" transform="translate(-13.43 -17.6)"/><path id="_Path_74" data-name="&lt;Path&gt;" class="cls-26" d="M279.32,333.76h0c-.1,1.82-2.67,2.21-2.67,2.21l4.87,8.44s1.62-2,3.25-1.21h0c2.4,1,4.26-.25,4.26-3.12a10.77,10.77,0,0,0-4.87-8.44C281.66,330.19,279.62,331.16,279.32,333.76Z" transform="translate(-13.43 -17.6)"/><path id="_Path_75" data-name="&lt;Path&gt;" class="cls-26" d="M277.81,335.6a5.06,5.06,0,0,1-1.17.36l4.87,8.44a5.07,5.07,0,0,1,.9-.82A10.89,10.89,0,0,0,277.81,335.6Z" transform="translate(-13.43 -17.6)"/><path id="_Path_76" data-name="&lt;Path&gt;" class="cls-3" d="M271.57,336.55l.41.7a5.11,5.11,0,0,0-.21,1.51,10.77,10.77,0,0,0,4.87,8.44,5.12,5.12,0,0,0,1.41.57l.41.7,1.62-.94h0a3.42,3.42,0,0,0,1.43-3.15,10.77,10.77,0,0,0-4.87-8.44,3.42,3.42,0,0,0-3.44-.34h0Z" transform="translate(-13.43 -17.6)"/><g id="_Group_35" data-name="&lt;Group&gt;"><path id="_Path_77" data-name="&lt;Path&gt;" class="cls-3" d="M279.89,345.33A10.77,10.77,0,0,0,275,336.9c-2.69-1.55-4.87-.29-4.87,2.81a10.77,10.77,0,0,0,4.87,8.44C277.71,349.7,279.89,348.44,279.89,345.33Z" transform="translate(-13.43 -17.6)"/><path id="_Path_78" data-name="&lt;Path&gt;" class="cls-5" d="M279.89,345.33A10.77,10.77,0,0,0,275,336.9c-2.69-1.55-4.87-.29-4.87,2.81a10.77,10.77,0,0,0,4.87,8.44C277.71,349.7,279.89,348.44,279.89,345.33Z" transform="translate(-13.43 -17.6)"/></g><path id="_Path_79" data-name="&lt;Path&gt;" class="cls-4" d="M308.4,323.24h0a1.34,1.34,0,0,1-.49,1.83l-16.59,9.58a1.34,1.34,0,0,1-1.83-.49h0a1.34,1.34,0,0,1,.49-1.83l16.59-9.58A1.34,1.34,0,0,1,308.4,323.24Z" transform="translate(-13.43 -17.6)"/><path id="_Path_80" data-name="&lt;Path&gt;" class="cls-4" d="M305.4,319.68h0a.79.79,0,0,1-.06,1.38l-16.9,9.76a1.84,1.84,0,0,1-2-.21h0a.79.79,0,0,1,.06-1.38l16.9-9.76A1.84,1.84,0,0,1,305.4,319.68Z" transform="translate(-13.43 -17.6)"/><path id="_Path_81" data-name="&lt;Path&gt;" class="cls-4" d="M310,327.62h0a.79.79,0,0,0-1.22-.64l-16.9,9.76a1.84,1.84,0,0,0-.79,1.8h0a.79.79,0,0,0,1.22.64l16.9-9.76A1.84,1.84,0,0,0,310,327.62Z" transform="translate(-13.43 -17.6)"/><g id="_Group_36" data-name="&lt;Group&gt;"><path id="_Path_82" data-name="&lt;Path&gt;" class="cls-11" d="M232.31,365v3.25l8.12-2.64s1.62-3,3.25-3.92l30.85-17.81,1-2.7-1-.55-30.85,17.81a3.24,3.24,0,0,1-3.25-.17Z" transform="translate(-13.43 -17.6)"/><path id="_Path_83" data-name="&lt;Path&gt;" class="cls-12" d="M233.26,365.56v3.25l8.12-2.64s1.62-3,3.25-3.92l30.85-17.81v-3.25L244.62,359a3.24,3.24,0,0,1-3.25-.17Z" transform="translate(-13.43 -17.6)"/><polygon id="_Path_84" data-name="&lt;Path&gt;" class="cls-23" points="219.83 351.21 218.88 350.66 218.88 347.41 219.83 347.96 219.83 351.21"/><polygon id="_Path_85" data-name="&lt;Path&gt;" class="cls-11" points="218.88 347.41 219.83 347.96 227.95 341.23 227 340.68 218.88 347.41"/></g></g><g id="Wrench"><path class="cls-12" d="M332.36,345.8a.92.92,0,0,1-.14.49,7.74,7.74,0,0,1-2.7,2.39,18.28,18.28,0,0,1-12.14,1.52L277,373.49l.07.13.63-.11v2.29c0,1.73-1.15,3.46-3.46,4.77-4.57,2.6-11.92,2.57-16.43-.07l-.29-.18a.4.4,0,0,1-.17-.31v-2.16l10.5.61,1.53-3.2-.86-.5-3.17-1.86-9.77,1.42a.44.44,0,0,1-.5-.43v-2.4L258,371s8.06-2.38,12.15-1.52l40.33-23.29a4.26,4.26,0,0,1-.7-2.4s0-2.27,0-2.27l.61.22a7.46,7.46,0,0,1,2.85-2.63c4.57-2.6,16.88-1.86,16.88-1.86v2.24a.21.21,0,0,1-.19.21l-10.31,1.51-.67,1.41-.86,1.79,4,2.36,10-3.62.25.43Z" transform="translate(-13.43 -17.6)"/><path class="cls-23" d="M269.42,373l-.86,1.79-3.17-1.86-9.77,1.42a.44.44,0,0,1-.5-.43v-2.41l10.27-.88Z" transform="translate(-13.43 -17.6)"/><path class="cls-23" d="M319.59,338.94l10.5-1.69v2.26a.22.22,0,0,1-.19.22l-10.31,1.51-.67,1.41-.86-.5Z" transform="translate(-13.43 -17.6)"/><polygon id="_Path_86" data-name="&lt;Path&gt;" class="cls-12" points="303.94 332.61 303.94 330.31 263.6 353.6 263.6 355.89 303.94 332.61"/><path id="_Path_87" data-name="&lt;Path&gt;" class="cls-11" d="M258,368.72a7.7,7.7,0,0,0-2.76,2.47.54.54,0,0,0,.53.83l9.65-1.41,4,2.36-1.53,3.2-10.11,1.48c-.38.05-.5.21-.3.34l.37.22c4.5,2.64,11.86,2.67,16.43.07,3.35-1.91,4.26-4.69,2.75-7.08l40.34-23.29a18.24,18.24,0,0,0,12.14-1.52,7.7,7.7,0,0,0,2.76-2.46.54.54,0,0,0-.53-.83l-9.64,1.41-4-2.36,1.53-3.2,10.11-1.48c.36-.05.49-.21.3-.33l-.37-.22c-4.5-2.64-11.86-2.67-16.43-.07-3.35,1.91-4.26,4.69-2.75,7.08L270.11,367.2A18.24,18.24,0,0,0,258,368.72Z" transform="translate(-13.43 -17.6)"/></g><g id="Gears"><g id="_Group_37" data-name="&lt;Group&gt;"><path id="_Compound_Path_2" data-name="&lt;Compound Path&gt;" class="cls-3" d="M352.1,357.95h0a.56.56,0,0,0,.35.5l3.15,1.58a.85.85,0,0,1,.36,1.16,6.05,6.05,0,0,0-.32.85,1.46,1.46,0,0,1-1,1l-4.91-2.57v4h0a.82.82,0,0,0,0,.25l.68,2.17a1.2,1.2,0,0,0,1.13.8l4.49-.18a2.19,2.19,0,0,1,1.45.62l.1.09a5,5,0,0,0-.89.3v4h0a.57.57,0,0,0,.41.52l3.93,1.57a1.86,1.86,0,0,0,1.54-.16l2.64-1.75a2.5,2.5,0,0,1,1.58-.32c.84.15,1.69.25,2.54.32a1.72,1.72,0,0,1,1.27.83l1,1.9a1.37,1.37,0,0,0,1.27.69l4.91-.51a.85.85,0,0,0,.77-.84h0V372.1a1,1,0,0,1,.5-.35,20,20,0,0,0,2-.75,2.69,2.69,0,0,1,1.62-.11l3.82,1.2a1.78,1.78,0,0,0,1.5-.3l2.51-2.09a.61.61,0,0,0,.24-.45h0v-4.06l-3.51,2a.85.85,0,0,1-.36-1.16,6,6,0,0,0,.32-.85,1.46,1.46,0,0,1,1-1l4.27-.73a.74.74,0,0,0,.63-.71h0v-4.05l-2.74.48-3.59.51a2.19,2.19,0,0,1-1.45-.62,10.61,10.61,0,0,0-1.07-1,.76.76,0,0,1-.11-1.15L386,355a.64.64,0,0,0,.19-.44h0v-4.06L383.11,353l-1.27-.51a1.86,1.86,0,0,0-1.54.16l-2.64,1.75a2.5,2.5,0,0,1-1.58.32c-.84-.15-1.55-.68-2.4-.75-.48,0-1.19,0-1.41-.39l-1-1.9A1.37,1.37,0,0,0,370,351l-4.91.51a.86.86,0,0,0-.76,1l.23,1.86a1.07,1.07,0,0,1-.73,1.11,20,20,0,0,0-2,.75,2.69,2.69,0,0,1-1.62.11l-3.82-1.2a1.78,1.78,0,0,0-1.11.08l-3.14-1.27Zm24.68,1.2c4.26,1.7,5.31,5.08,2.36,7.53s-8.59,2.31-12.85.6-5.52-4.32-2.56-6.77S372.52,357.44,376.78,359.15Z" transform="translate(-13.43 -17.6)"/><path id="_Compound_Path_3" data-name="&lt;Compound Path&gt;" class="cls-4" d="M352.1,357.95h0a.56.56,0,0,0,.35.5l3.15,1.58a.85.85,0,0,1,.36,1.16,6.05,6.05,0,0,0-.32.85,1.46,1.46,0,0,1-1,1l-4.91-2.57v4h0a.82.82,0,0,0,0,.25l.68,2.17a1.2,1.2,0,0,0,1.13.8l4.49-.18a2.19,2.19,0,0,1,1.45.62l.1.09a5,5,0,0,0-.89.3v4h0a.57.57,0,0,0,.41.52l3.93,1.57a1.86,1.86,0,0,0,1.54-.16l2.64-1.75a2.5,2.5,0,0,1,1.58-.32c.84.15,1.69.25,2.54.32a1.72,1.72,0,0,1,1.27.83l1,1.9a1.37,1.37,0,0,0,1.27.69l4.91-.51a.85.85,0,0,0,.77-.84h0V372.1a1,1,0,0,1,.5-.35,20,20,0,0,0,2-.75,2.69,2.69,0,0,1,1.62-.11l3.82,1.2a1.78,1.78,0,0,0,1.5-.3l2.51-2.09a.61.61,0,0,0,.24-.45h0v-4.06l-3.51,2a.85.85,0,0,1-.36-1.16,6,6,0,0,0,.32-.85,1.46,1.46,0,0,1,1-1l4.27-.73a.74.74,0,0,0,.63-.71h0v-4.05l-2.74.48-3.59.51a2.19,2.19,0,0,1-1.45-.62,10.61,10.61,0,0,0-1.07-1,.76.76,0,0,1-.11-1.15L386,355a.64.64,0,0,0,.19-.44h0v-4.06L383.11,353l-1.27-.51a1.86,1.86,0,0,0-1.54.16l-2.64,1.75a2.5,2.5,0,0,1-1.58.32c-.84-.15-1.55-.68-2.4-.75-.48,0-1.19,0-1.41-.39l-1-1.9A1.37,1.37,0,0,0,370,351l-4.91.51a.86.86,0,0,0-.76,1l.23,1.86a1.07,1.07,0,0,1-.73,1.11,20,20,0,0,0-2,.75,2.69,2.69,0,0,1-1.62.11l-3.82-1.2a1.78,1.78,0,0,0-1.11.08l-3.14-1.27Zm24.68,1.2c4.26,1.7,5.31,5.08,2.36,7.53s-8.59,2.31-12.85.6-5.52-4.32-2.56-6.77S372.52,357.44,376.78,359.15Z" transform="translate(-13.43 -17.6)"/><path id="_Path_88" data-name="&lt;Path&gt;" class="cls-3" d="M382.73,370.89l3.78,1.18a1.71,1.71,0,0,0,1,0v-5l-.2.11a.85.85,0,0,1-.36-1.16h0l-4.17-2.41Z" transform="translate(-13.43 -17.6)"/><path id="_Path_89" data-name="&lt;Path&gt;" class="cls-3" d="M372,368.52a17.67,17.67,0,0,1-1.82-.19v4.79a1.47,1.47,0,0,1,.42.46l1,1.9a1.35,1.35,0,0,0,.72.61v-7.38Z" transform="translate(-13.43 -17.6)"/><path id="_Path_90" data-name="&lt;Path&gt;" class="cls-3" d="M352.09,353.92a.57.57,0,0,0,.36.48L355.6,356a.86.86,0,0,1,.36,1.16,5.72,5.72,0,0,0-.32.85,1.46,1.46,0,0,1-1,1l-.79.13-1.35-.68a.57.57,0,0,1-.36-.5h0Z" transform="translate(-13.43 -17.6)"/><path id="_Path_91" data-name="&lt;Path&gt;" class="cls-3" d="M355.7,361.89s0,.1-.05.14a1.46,1.46,0,0,1-1,1l-4.91-2.57v4h0a.82.82,0,0,0,0,.25l.68,2.17a1.2,1.2,0,0,0,1.13.8l4.49-.18a1.79,1.79,0,0,1,.7.15v-5.44Z" transform="translate(-13.43 -17.6)"/><path id="_Path_92" data-name="&lt;Path&gt;" class="cls-3" d="M362.05,374.72v-5l-4.6-1.45a5.57,5.57,0,0,0-.76.27v4h0a.57.57,0,0,0,.41.52l3.93,1.57A1.82,1.82,0,0,0,362.05,374.72Z" transform="translate(-13.43 -17.6)"/><path id="_Compound_Path_4" data-name="&lt;Compound Path&gt;" class="cls-3" d="M354.85,351.37l-2.51,2.09a.53.53,0,0,0,.11.95L355.6,356a.85.85,0,0,1,.36,1.16,6.05,6.05,0,0,0-.32.85,1.46,1.46,0,0,1-1,1l-4.27.73a.74.74,0,0,0-.6,1l.68,2.17a1.2,1.2,0,0,0,1.13.8l4.49-.18a2.19,2.19,0,0,1,1.45.62,10.63,10.63,0,0,0,1.07,1,.76.76,0,0,1,.11,1.15l-1.78,1.89a.55.55,0,0,0,.21,1l3.93,1.57a1.86,1.86,0,0,0,1.54-.16l2.64-1.75a2.5,2.5,0,0,1,1.58-.32c.84.15,1.69.25,2.54.32a1.72,1.72,0,0,1,1.27.83l1,1.9a1.37,1.37,0,0,0,1.27.69l4.91-.51a.86.86,0,0,0,.76-1l-.23-1.86a1.07,1.07,0,0,1,.73-1.11,20,20,0,0,0,2-.75,2.69,2.69,0,0,1,1.62-.11l3.82,1.2a1.78,1.78,0,0,0,1.5-.3l2.51-2.09a.53.53,0,0,0-.11-.95l-3.15-1.58a.85.85,0,0,1-.36-1.16,6.05,6.05,0,0,0,.32-.85,1.46,1.46,0,0,1,1-1l4.27-.73a.74.74,0,0,0,.6-1l-.68-2.17a1.2,1.2,0,0,0-1.13-.8l-4.49.18a2.19,2.19,0,0,1-1.45-.62,10.63,10.63,0,0,0-1.07-1,.76.76,0,0,1-.11-1.15L386,351a.55.55,0,0,0-.21-1l-3.93-1.57a1.86,1.86,0,0,0-1.54.16l-2.64,1.75a2.5,2.5,0,0,1-1.58.32c-.84-.15-1.69-.25-2.54-.32a1.72,1.72,0,0,1-1.27-.83l-1-1.9A1.37,1.37,0,0,0,370,347l-4.91.51a.86.86,0,0,0-.76,1l.23,1.86a1.07,1.07,0,0,1-.73,1.11,20,20,0,0,0-2,.75,2.69,2.69,0,0,1-1.62.11l-3.82-1.2A1.78,1.78,0,0,0,354.85,351.37Zm21.93,3.74c4.26,1.7,5.31,5.08,2.36,7.53s-8.79,3.07-13,1.36-5.31-5.08-2.36-7.53S372.52,353.4,376.78,355.11Z" transform="translate(-13.43 -17.6)"/><path id="_Compound_Path_5" data-name="&lt;Compound Path&gt;" class="cls-25" d="M354.85,351.37l-2.51,2.09a.53.53,0,0,0,.11.95L355.6,356a.85.85,0,0,1,.36,1.16,6.05,6.05,0,0,0-.32.85,1.46,1.46,0,0,1-1,1l-4.27.73a.74.74,0,0,0-.6,1l.68,2.17a1.2,1.2,0,0,0,1.13.8l4.49-.18a2.19,2.19,0,0,1,1.45.62,10.63,10.63,0,0,0,1.07,1,.76.76,0,0,1,.11,1.15l-1.78,1.89a.55.55,0,0,0,.21,1l3.93,1.57a1.86,1.86,0,0,0,1.54-.16l2.64-1.75a2.5,2.5,0,0,1,1.58-.32c.84.15,1.69.25,2.54.32a1.72,1.72,0,0,1,1.27.83l1,1.9a1.37,1.37,0,0,0,1.27.69l4.91-.51a.86.86,0,0,0,.76-1l-.23-1.86a1.07,1.07,0,0,1,.73-1.11,20,20,0,0,0,2-.75,2.69,2.69,0,0,1,1.62-.11l3.82,1.2a1.78,1.78,0,0,0,1.5-.3l2.51-2.09a.53.53,0,0,0-.11-.95l-3.15-1.58a.85.85,0,0,1-.36-1.16,6.05,6.05,0,0,0,.32-.85,1.46,1.46,0,0,1,1-1l4.27-.73a.74.74,0,0,0,.6-1l-.68-2.17a1.2,1.2,0,0,0-1.13-.8l-4.49.18a2.19,2.19,0,0,1-1.45-.62,10.63,10.63,0,0,0-1.07-1,.76.76,0,0,1-.11-1.15L386,351a.55.55,0,0,0-.21-1l-3.93-1.57a1.86,1.86,0,0,0-1.54.16l-2.64,1.75a2.5,2.5,0,0,1-1.58.32c-.84-.15-1.69-.25-2.54-.32a1.72,1.72,0,0,1-1.27-.83l-1-1.9A1.37,1.37,0,0,0,370,347l-4.91.51a.86.86,0,0,0-.76,1l.23,1.86a1.07,1.07,0,0,1-.73,1.11,20,20,0,0,0-2,.75,2.69,2.69,0,0,1-1.62.11l-3.82-1.2A1.78,1.78,0,0,0,354.85,351.37Zm21.93,3.74c4.26,1.7,5.31,5.08,2.36,7.53s-8.79,3.07-13,1.36-5.31-5.08-2.36-7.53S372.52,353.4,376.78,355.11Z" transform="translate(-13.43 -17.6)"/></g><g id="_Group_38" data-name="&lt;Group&gt;"><path id="_Compound_Path_6" data-name="&lt;Compound Path&gt;" class="cls-3" d="M400.2,332.76v4h0a.59.59,0,0,0,.28.46l5.54,4a.74.74,0,0,1,.1,1.14,13.93,13.93,0,0,0-2,2.75,1.72,1.72,0,0,1-1.26.84l-9.32.59a.94.94,0,0,0-.87.93v5.2a.94.94,0,0,0,.87.93l9.32.59a1.72,1.72,0,0,1,1.26.84,13.15,13.15,0,0,0,1,1.52l-4.93,2.84v4h0a.58.58,0,0,0,.33.46l7,4a1.89,1.89,0,0,0,1.55.07l7.09-3.28a2.6,2.6,0,0,1,1.62-.1,42.09,42.09,0,0,0,5.5,1.31,1.34,1.34,0,0,1,1,1l.89,4.67a1.1,1.1,0,0,0,1,.86h10.28a1.1,1.1,0,0,0,1-.86l.89-4.67a1.34,1.34,0,0,1,1-1,42.12,42.12,0,0,0,5.51-1.31,2.6,2.6,0,0,1,1.62.1l7.09,3.28a1.88,1.88,0,0,0,1.55-.07l7-4a.57.57,0,0,0,.33-.47h0v-4l-4.66-3.22a13,13,0,0,0,.71-1.15,1.72,1.72,0,0,1,1.26-.84l9.32-.59a.94.94,0,0,0,.87-.93v-5.2a.94.94,0,0,0-.87-.93l-9.32-.59a1.72,1.72,0,0,1-1.26-.84,13.93,13.93,0,0,0-2-2.75.74.74,0,0,1,.1-1.14l5.54-4a.58.58,0,0,0,.28-.47h0v-4l-7.32-.54a1.89,1.89,0,0,0-1.55-.07l-7.09,3.28a1.56,1.56,0,0,1-1.47-.19,16.47,16.47,0,0,0-6-2.8,1.41,1.41,0,0,1-1-1l-.54-2.87a1.09,1.09,0,0,0-1-.86H426.23a1.1,1.1,0,0,0-1,.86l-.58,3.07a1.45,1.45,0,0,1-1,1,23.27,23.27,0,0,0-5.91,2.67,1.8,1.8,0,0,1-1.53.11l-7.09-3.29a1.89,1.89,0,0,0-1.55.07l-4.7-.81Zm43,10.45c6.53,3.77,6.24,8.62-.29,12.39s-17.22,3.71-23.74-.06-6.13-8.56.4-12.33S436.67,339.44,443.19,343.21Z" transform="translate(-13.43 -17.6)"/><path id="_Compound_Path_7" data-name="&lt;Compound Path&gt;" class="cls-4" d="M400.2,332.76v4h0a.59.59,0,0,0,.28.46l5.54,4a.74.74,0,0,1,.1,1.14,13.93,13.93,0,0,0-2,2.75,1.72,1.72,0,0,1-1.26.84l-9.32.59a.94.94,0,0,0-.87.93v5.2a.94.94,0,0,0,.87.93l9.32.59a1.72,1.72,0,0,1,1.26.84,13.15,13.15,0,0,0,1,1.52l-4.93,2.84v4h0a.58.58,0,0,0,.33.46l7,4a1.89,1.89,0,0,0,1.55.07l7.09-3.28a2.6,2.6,0,0,1,1.62-.1,42.09,42.09,0,0,0,5.5,1.31,1.34,1.34,0,0,1,1,1l.89,4.67a1.1,1.1,0,0,0,1,.86h10.28a1.1,1.1,0,0,0,1-.86l.89-4.67a1.34,1.34,0,0,1,1-1,42.12,42.12,0,0,0,5.51-1.31,2.6,2.6,0,0,1,1.62.1l7.09,3.28a1.88,1.88,0,0,0,1.55-.07l7-4a.57.57,0,0,0,.33-.47h0v-4l-4.66-3.22a13,13,0,0,0,.71-1.15,1.72,1.72,0,0,1,1.26-.84l9.32-.59a.94.94,0,0,0,.87-.93v-5.2a.94.94,0,0,0-.87-.93l-9.32-.59a1.72,1.72,0,0,1-1.26-.84,13.93,13.93,0,0,0-2-2.75.74.74,0,0,1,.1-1.14l5.54-4a.58.58,0,0,0,.28-.47h0v-4l-7.32-.54a1.89,1.89,0,0,0-1.55-.07l-7.09,3.28a1.56,1.56,0,0,1-1.47-.19,16.47,16.47,0,0,0-6-2.8,1.41,1.41,0,0,1-1-1l-.54-2.87a1.09,1.09,0,0,0-1-.86H426.23a1.1,1.1,0,0,0-1,.86l-.58,3.07a1.45,1.45,0,0,1-1,1,23.27,23.27,0,0,0-5.91,2.67,1.8,1.8,0,0,1-1.53.11l-7.09-3.29a1.89,1.89,0,0,0-1.55.07l-4.7-.81Zm43,10.45c6.53,3.77,6.24,8.62-.29,12.39s-17.22,3.71-23.74-.06-6.13-8.56.4-12.33S436.67,339.44,443.19,343.21Z" transform="translate(-13.43 -17.6)"/><path id="_Path_93" data-name="&lt;Path&gt;" class="cls-3" d="M396.65,346.31l-3.08.2a.94.94,0,0,0-.87.93v5.2a.94.94,0,0,0,.87.93l9.32.59a1.34,1.34,0,0,1,.46.13V347.6Z" transform="translate(-13.43 -17.6)"/><path id="_Path_94" data-name="&lt;Path&gt;" class="cls-3" d="M445.89,364.46a2.21,2.21,0,0,1,.7.16l7.09,3.28a1.64,1.64,0,0,0,.63.12v-4.5l-8.42-4.93Z" transform="translate(-13.43 -17.6)"/><path id="_Path_95" data-name="&lt;Path&gt;" class="cls-3" d="M425.33,371.85a1.1,1.1,0,0,0,.9.52h10.28a1,1,0,0,0,.62-.23V367l-11.77-1.33Z" transform="translate(-13.43 -17.6)"/><path id="_Path_96" data-name="&lt;Path&gt;" class="cls-3" d="M408.6,368v-6.33l-6.23-3.6-2.17,1.25v4h0a.58.58,0,0,0,.33.46l7,4A1.86,1.86,0,0,0,408.6,368Z" transform="translate(-13.43 -17.6)"/><path id="_Compound_Path_8" data-name="&lt;Compound Path&gt;" class="cls-3" d="M407.52,328.25l-7,4a.52.52,0,0,0,0,.95l5.54,4a.74.74,0,0,1,.1,1.14,13.94,13.94,0,0,0-2,2.75,1.72,1.72,0,0,1-1.26.84l-9.32.59a.94.94,0,0,0-.87.93v5.2a.94.94,0,0,0,.87.93l9.32.59a1.72,1.72,0,0,1,1.26.84,13.93,13.93,0,0,0,2,2.75.74.74,0,0,1-.1,1.14l-5.54,4a.52.52,0,0,0,0,.95l7,4a1.89,1.89,0,0,0,1.55.07l7.09-3.28a2.6,2.6,0,0,1,1.62-.1,42.12,42.12,0,0,0,5.5,1.31,1.34,1.34,0,0,1,1,1l.89,4.67a1.1,1.1,0,0,0,1,.86h10.29a1.1,1.1,0,0,0,1-.86l.89-4.67a1.34,1.34,0,0,1,1-1,42.12,42.12,0,0,0,5.5-1.31,2.6,2.6,0,0,1,1.62.1l7.09,3.28a1.89,1.89,0,0,0,1.55-.07l7-4a.52.52,0,0,0,0-.95l-5.54-4a.74.74,0,0,1-.1-1.14,13.94,13.94,0,0,0,2-2.75,1.72,1.72,0,0,1,1.26-.84l9.32-.59a.94.94,0,0,0,.87-.93v-5.2a.94.94,0,0,0-.87-.93l-9.32-.59a1.72,1.72,0,0,1-1.26-.84,14,14,0,0,0-2-2.75.74.74,0,0,1,.1-1.14l5.54-4a.52.52,0,0,0,0-.95l-7-4a1.89,1.89,0,0,0-1.55-.07l-7.09,3.29a2.6,2.6,0,0,1-1.62.1,42,42,0,0,0-5.5-1.31,1.34,1.34,0,0,1-1-1l-.89-4.67a1.1,1.1,0,0,0-1-.86H426.23a1.1,1.1,0,0,0-1,.86l-.89,4.67a1.34,1.34,0,0,1-1,1,42.11,42.11,0,0,0-5.5,1.31,2.6,2.6,0,0,1-1.62-.1l-7.09-3.28A1.89,1.89,0,0,0,407.52,328.25Zm35.67,11c6.53,3.77,6.53,9.88,0,13.65s-17.11,3.77-23.63,0-6.53-9.88,0-13.65S436.66,335.47,443.19,339.24Z" transform="translate(-13.43 -17.6)"/><path id="_Compound_Path_9" data-name="&lt;Compound Path&gt;" class="cls-25" d="M407.52,328.25l-7,4a.52.52,0,0,0,0,.95l5.54,4a.74.74,0,0,1,.1,1.14,13.94,13.94,0,0,0-2,2.75,1.72,1.72,0,0,1-1.26.84l-9.32.59a.94.94,0,0,0-.87.93v5.2a.94.94,0,0,0,.87.93l9.32.59a1.72,1.72,0,0,1,1.26.84,13.93,13.93,0,0,0,2,2.75.74.74,0,0,1-.1,1.14l-5.54,4a.52.52,0,0,0,0,.95l7,4a1.89,1.89,0,0,0,1.55.07l7.09-3.28a2.6,2.6,0,0,1,1.62-.1,42.12,42.12,0,0,0,5.5,1.31,1.34,1.34,0,0,1,1,1l.89,4.67a1.1,1.1,0,0,0,1,.86h10.29a1.1,1.1,0,0,0,1-.86l.89-4.67a1.34,1.34,0,0,1,1-1,42.12,42.12,0,0,0,5.5-1.31,2.6,2.6,0,0,1,1.62.1l7.09,3.28a1.89,1.89,0,0,0,1.55-.07l7-4a.52.52,0,0,0,0-.95l-5.54-4a.74.74,0,0,1-.1-1.14,13.94,13.94,0,0,0,2-2.75,1.72,1.72,0,0,1,1.26-.84l9.32-.59a.94.94,0,0,0,.87-.93v-5.2a.94.94,0,0,0-.87-.93l-9.32-.59a1.72,1.72,0,0,1-1.26-.84,14,14,0,0,0-2-2.75.74.74,0,0,1,.1-1.14l5.54-4a.52.52,0,0,0,0-.95l-7-4a1.89,1.89,0,0,0-1.55-.07l-7.09,3.29a2.6,2.6,0,0,1-1.62.1,42,42,0,0,0-5.5-1.31,1.34,1.34,0,0,1-1-1l-.89-4.67a1.1,1.1,0,0,0-1-.86H426.23a1.1,1.1,0,0,0-1,.86l-.89,4.67a1.34,1.34,0,0,1-1,1,42.11,42.11,0,0,0-5.5,1.31,2.6,2.6,0,0,1-1.62-.1l-7.09-3.28A1.89,1.89,0,0,0,407.52,328.25Zm35.67,11c6.53,3.77,6.53,9.88,0,13.65s-17.11,3.77-23.63,0-6.53-9.88,0-13.65S436.66,335.47,443.19,339.24Z" transform="translate(-13.43 -17.6)"/><path id="_Path_97" data-name="&lt;Path&gt;" class="cls-3" d="M400.2,332.76h0a.56.56,0,0,0,.28.48l5.54,4a.74.74,0,0,1,.1,1.14,13.43,13.43,0,0,0-1.45,1.87l-4.2-3a.59.59,0,0,1-.28-.47h0Z" transform="translate(-13.43 -17.6)"/><path id="_Path_98" data-name="&lt;Path&gt;" class="cls-3" d="M400.2,332.76h0a.56.56,0,0,0,.28.48l5.54,4a.74.74,0,0,1,.1,1.14,13.43,13.43,0,0,0-1.45,1.87l-4.2-3a.59.59,0,0,1-.28-.47h0Z" transform="translate(-13.43 -17.6)"/></g></g></g><g id="Character"><g id="Character-2" data-name="Character"><g id="_Group_39" data-name="&lt;Group&gt;"><path id="_Path_99" data-name="&lt;Path&gt;" class="cls-27" d="M172.5,278.35c4.51,5.39,13.35,16.72,17.58,22,2.22,2.79-1.51,16-4.24,13.34-2.45-2.42-13.34-16.29-13.34-16.29s-4.77-18.85-8.44-20a17,17,0,0,0-6.2-.83C162.28,275.13,166.78,271.51,172.5,278.35Z" transform="translate(-13.43 -17.6)"/><path id="_Path_100" data-name="&lt;Path&gt;" class="cls-3" d="M155.68,273.13c6.72-1.45,11.26-1.88,16.13,3.26,3.35,3.53,10.77,12.26,10.77,12.26a18,18,0,0,1-10.08,9.49Z" transform="translate(-13.43 -17.6)"/><path id="_Path_101" data-name="&lt;Path&gt;" class="cls-25" d="M155.68,273.13c6.72-1.45,11.26-1.88,16.13,3.26,3.35,3.53,10.77,12.26,10.77,12.26a18,18,0,0,1-10.08,9.49Z" transform="translate(-13.43 -17.6)"/></g><g id="_Group_40" data-name="&lt;Group&gt;"><g id="_Group_41" data-name="&lt;Group&gt;"><g id="_Group_42" data-name="&lt;Group&gt;"><path id="_Path_102" data-name="&lt;Path&gt;" class="cls-28" d="M202.73,392.21l19,28.14a1,1,0,0,0,1.89-.52l2-34.1Z" transform="translate(-13.43 -17.6)"/><path id="_Path_103" data-name="&lt;Path&gt;" class="cls-14" d="M223.69,419.87a1.07,1.07,0,0,1-2,.49L218,414.85h0A5.72,5.72,0,0,0,223.7,413l.38-.44Z" transform="translate(-13.43 -17.6)"/><path id="_Path_104" data-name="&lt;Path&gt;" class="cls-11" d="M187.82,247.54l.83,3,1,3.66,36,131.5a15.17,15.17,0,0,1-8.45,7.18c-5.41,2.09-11.61,1.81-14.47-.7L167,261.68l-1.91-7C166.58,259.14,189.26,252,187.82,247.54Z" transform="translate(-13.43 -17.6)"/><path id="_Path_105" data-name="&lt;Path&gt;" class="cls-3" d="M191,259.07l1.84,6.77c.6,1.95-3.24,4.35-8,6.1-6.25,2.34-14,3.55-14.82,1l-1.35-5-.49-1.79c.8,2.58,8.58,1.38,14.83-1,4.51-1.69,8.24-4,8-5.88v0A.42.42,0,0,0,191,259.07Z" transform="translate(-13.43 -17.6)"/><path id="_Path_106" data-name="&lt;Path&gt;" class="cls-25" d="M191,259.07l1.84,6.77c.6,1.95-3.24,4.35-8,6.1-6.25,2.34-14,3.55-14.82,1l-1.35-5-.49-1.79c.8,2.58,8.58,1.38,14.83-1,4.51-1.69,8.24-4,8-5.88v0A.42.42,0,0,0,191,259.07Z" transform="translate(-13.43 -17.6)"/><path id="_Path_107" data-name="&lt;Path&gt;" class="cls-3" d="M191.46,260.77c1.4,4.52-21.37,11.58-22.77,7.06l-1.87-6.78c1.4,4.52,24.16-2.54,22.76-7.06Z" transform="translate(-13.43 -17.6)"/><path id="_Path_108" data-name="&lt;Path&gt;" class="cls-3" d="M187.82,247.54l1.84,6.69c1.41,4.42-20.5,11.46-22.66,7.45a1,1,0,0,1-.11-.24l-1.8-6.75C166.58,259.14,189.26,252,187.82,247.54Z" transform="translate(-13.43 -17.6)"/><path id="_Path_109" data-name="&lt;Path&gt;" class="cls-25" d="M187.82,247.54l1.84,6.69c1.41,4.42-20.5,11.46-22.66,7.45a1,1,0,0,1-.11-.24l-1.8-6.75C166.58,259.14,189.26,252,187.82,247.54Z" transform="translate(-13.43 -17.6)"/><path id="_Path_110" data-name="&lt;Path&gt;" class="cls-18" d="M180,219.15l7.8,28.38c.62,1.92-3.17,4.32-7.84,6.08-6.25,2.36-14,3.62-14.9,1.06,0,0,0,0,0,0l-7.5-27.3c-2.27-6.22,9-12.28,16.53-11.77C176.91,215.75,179.17,216.83,180,219.15Z" transform="translate(-13.43 -17.6)"/><path class="cls-5" d="M221.76,420.34a1,1,0,0,0,.65.43l-11.69-26.46L164.57,217.63c-4.75,2.22-8.38,5.94-7,9.72l7.5,27.3,1.82,6.78a1,1,0,0,0,.11.24L202.75,392.2h0Z" transform="translate(-13.43 -17.6)"/><path class="cls-28" d="M180.13,219.55l-.11-.4c-.85-2.33-3.11-3.41-5.92-3.58-7.16-.48-17.74,5-16.75,10.9.38,1.44,2.23,1.91,4.25,2.22,5.51.84,13-1.8,16.63-5.55A6.2,6.2,0,0,0,180.13,219.55Z" transform="translate(-13.43 -17.6)"/></g></g></g><g id="_Group_43" data-name="&lt;Group&gt;"><g id="Botom"><g id="_Group_44" data-name="&lt;Group&gt;"><g id="_Group_45" data-name="&lt;Group&gt;"><polygon id="_Path_111" data-name="&lt;Path&gt;" class="cls-29" points="122.03 419.06 129.69 419.06 131.1 404 122.03 405.19 122.03 419.06"/><polygon id="_Path_112" data-name="&lt;Path&gt;" class="cls-29" points="150.22 409.97 158.62 410.26 158.29 395.81 149 395.26 150.22 409.97"/><path id="_Path_113" data-name="&lt;Path&gt;" class="cls-12" d="M152.43,450.92a3.51,3.51,0,0,1-.1,2.33c-.3.47-2,2-5.18,2.18s-5.68-.19-7.44-1.31a5.19,5.19,0,0,1-2.78-4.06c-.17-1.71,0-3.36-.79-4.68s-2-2.58-2.21-3.24a6.66,6.66,0,0,1,0-3.48Z" transform="translate(-13.43 -17.6)"/><path id="_Path_114" data-name="&lt;Path&gt;" class="cls-3" d="M144.21,436a6.63,6.63,0,0,0,.35,1.9,17.41,17.41,0,0,0,1.84,3.76,15.41,15.41,0,0,0,1.25,1.77c.91,1.08,2,2,3,3a6.14,6.14,0,0,1,1.85,3.68c.13,2.35-2.43,3.15-4.39,3.5a14.44,14.44,0,0,1-6.39-.32,5.87,5.87,0,0,1-4.31-4.69c-.11-.65-.07-1.32-.15-2a9.25,9.25,0,0,0-1.83-4.12,12.42,12.42,0,0,1-1.4-2.24c-.61-1.46-.12-3.1.27-4.55.34-1.25.72-2.67,1.16-2.55,0,.65,0,.72.46,1.16s.62,1.4,1.24,1.89a8.62,8.62,0,0,1-.44-1.67,1,1,0,0,1,.13-.67,1.75,1.75,0,0,1,.72-.39,14.44,14.44,0,0,1,2.86-.65,8.52,8.52,0,0,1,2.79,0,1.21,1.21,0,0,1,.7.41,1.4,1.4,0,0,1,.25.8C144.22,434.4,144.19,435.37,144.21,436Z" transform="translate(-13.43 -17.6)"/><path id="_Path_115" data-name="&lt;Path&gt;" class="cls-7" d="M144.21,436a6.63,6.63,0,0,0,.35,1.9,17.41,17.41,0,0,0,1.84,3.76,15.41,15.41,0,0,0,1.25,1.77c.91,1.08,2,2,3,3a6.14,6.14,0,0,1,1.85,3.68c.13,2.35-2.43,3.15-4.39,3.5a14.44,14.44,0,0,1-6.39-.32,5.87,5.87,0,0,1-4.31-4.69c-.11-.65-.07-1.32-.15-2a9.25,9.25,0,0,0-1.83-4.12,12.42,12.42,0,0,1-1.4-2.24c-.61-1.46-.12-3.1.27-4.55.34-1.25.72-2.67,1.16-2.55,0,.65,0,.72.46,1.16s.62,1.4,1.24,1.89a8.62,8.62,0,0,1-.44-1.67,1,1,0,0,1,.13-.67,1.75,1.75,0,0,1,.72-.39,14.44,14.44,0,0,1,2.86-.65,8.52,8.52,0,0,1,2.79,0,1.21,1.21,0,0,1,.7.41,1.4,1.4,0,0,1,.25.8C144.22,434.4,144.19,435.37,144.21,436Z" transform="translate(-13.43 -17.6)"/><path id="_Path_116" data-name="&lt;Path&gt;" class="cls-15" d="M146.71,442.15c-.88-.66-2.84-.67-3.91-.55a6.51,6.51,0,0,0-3.05,1.07.7.7,0,0,1-.9-.07h0a.66.66,0,0,1,.07-1,6.62,6.62,0,0,1,3.44-1.27c2.64-.19,3.42.27,3.42.27S147,441.37,146.71,442.15Z" transform="translate(-13.43 -17.6)"/><path id="_Path_117" data-name="&lt;Path&gt;" class="cls-15" d="M148.73,444.56c-1.1-.65-3.26-.56-4.34-.44a6.11,6.11,0,0,0-3,1.13.7.7,0,0,1-.9-.07h0a.66.66,0,0,1,.07-1,6.88,6.88,0,0,1,3.51-1.37c2.64-.19,3.33.35,3.33.35A2.19,2.19,0,0,1,148.73,444.56Z" transform="translate(-13.43 -17.6)"/><path id="_Path_118" data-name="&lt;Path&gt;" class="cls-15" d="M141.3,437.8a6.56,6.56,0,0,1,3.32.28c.47.26.77,1,.47,1.18a6.1,6.1,0,0,0-2.95-.4,8.73,8.73,0,0,0-2.86.79c-.23.1-.49.24-.73.37a.63.63,0,0,1-.87-.27h0a.59.59,0,0,1,.23-.76A8.48,8.48,0,0,1,141.3,437.8Z" transform="translate(-13.43 -17.6)"/><path id="_Path_119" data-name="&lt;Path&gt;" class="cls-12" d="M188.53,437.34a2.85,2.85,0,0,1-.12,2.1c-.29.61-3.5,2.42-7.81,2.13a18,18,0,0,1-8.93-3.12,10.33,10.33,0,0,0-5.5-1.42c-2.14-.12-4.95-1.19-5.42-2.19a4.74,4.74,0,0,1,.07-2.72Z" transform="translate(-13.43 -17.6)"/><path id="_Path_120" data-name="&lt;Path&gt;" class="cls-3" d="M171.1,423.86l.34-.07a1.34,1.34,0,0,1,.57,0,1.11,1.11,0,0,1,.53.36,10.63,10.63,0,0,1,1.1,1.73c.91,1.48,2.81,2.7,4.88,3.82,1.41.76,2.79,1.35,4.25,2s3.46,1.08,4.62,1.86a3.11,3.11,0,0,1,0,5.15c-1.67,1-6,2-10.65.74-2.5-.71-5.28-3.39-8.57-3.64-2.09-.16-6-.75-7.39-2.34-.5-.7.17-2.94.71-4.86.59-2.1,1.16-5.38,1.86-5.2a1,1,0,0,0,.36.79c.26.27.6.44.89.68a5.52,5.52,0,0,1,1.16,1.66,1.24,1.24,0,0,0,.59.64c.35.13.62-.09.92-.23a1.8,1.8,0,0,1,1.25-.09,7.8,7.8,0,0,0-.22-1.23.72.72,0,0,1,0-.4.64.64,0,0,1,.27-.3A6.69,6.69,0,0,1,171.1,423.86Z" transform="translate(-13.43 -17.6)"/><path id="_Path_121" data-name="&lt;Path&gt;" class="cls-7" d="M171.1,423.86l.34-.07a1.34,1.34,0,0,1,.57,0,1.11,1.11,0,0,1,.53.36,10.63,10.63,0,0,1,1.1,1.73c.91,1.48,2.81,2.7,4.88,3.82,1.41.76,2.79,1.35,4.25,2s3.46,1.08,4.62,1.86a3.11,3.11,0,0,1,0,5.15c-1.67,1-6,2-10.65.74-2.5-.71-5.28-3.39-8.57-3.64-2.09-.16-6-.75-7.39-2.34-.5-.7.17-2.94.71-4.86.59-2.1,1.16-5.38,1.86-5.2a1,1,0,0,0,.36.79c.26.27.6.44.89.68a5.52,5.52,0,0,1,1.16,1.66,1.24,1.24,0,0,0,.59.64c.35.13.62-.09.92-.23a1.8,1.8,0,0,1,1.25-.09,7.8,7.8,0,0,0-.22-1.23.72.72,0,0,1,0-.4.64.64,0,0,1,.27-.3A6.69,6.69,0,0,1,171.1,423.86Z" transform="translate(-13.43 -17.6)"/><path id="_Path_122" data-name="&lt;Path&gt;" class="cls-15" d="M176.58,428.53a1.94,1.94,0,0,0-1.54-1,5.62,5.62,0,0,0-3.68,1.38.78.78,0,0,0,.11,1.29h0a.78.78,0,0,0,.89-.1A6,6,0,0,1,176.58,428.53Z" transform="translate(-13.43 -17.6)"/><path id="_Path_123" data-name="&lt;Path&gt;" class="cls-15" d="M179.53,430.18a2.23,2.23,0,0,0-1.83-.94,7,7,0,0,0-4,1.5.76.76,0,0,0,.1,1.25h0a.74.74,0,0,0,.86-.1A6,6,0,0,1,179.53,430.18Z" transform="translate(-13.43 -17.6)"/><path id="_Path_124" data-name="&lt;Path&gt;" class="cls-15" d="M182.78,431.67a2.5,2.5,0,0,0-1.9-.85,6.68,6.68,0,0,0-3.85,1.52.76.76,0,0,0,.1,1.25h0a.74.74,0,0,0,.86-.1A5.71,5.71,0,0,1,182.78,431.67Z" transform="translate(-13.43 -17.6)"/><path id="_Path_125" data-name="&lt;Path&gt;" class="cls-11" d="M135.73,323.9c-.54,16.49.49,54.65.49,54.65-.17,2.05-2.15,5.7-2.3,13.09-.22,10.71,1.07,36.6,1.07,36.6a11.57,11.57,0,0,0,9.15.45s5.08-36.68,6.72-47.24c1.44-9.28,4.25-26.77,4.25-26.77l2.23,22.45s0,8,.44,14.36c.35,4.91,4.82,28,4.82,28a17.85,17.85,0,0,0,9.84-.3s-.43-37.41-.34-41.91c.1-5.13.26-57.76.26-57.76Z" transform="translate(-13.43 -17.6)"/><path class="cls-12" d="M155.11,354.68l2.44-13.51s6.76-.59,10.49-4.36c0,0-.66,3.69-9.16,5.91l-2.44,13.67.09,12.64Z" transform="translate(-13.43 -17.6)"/></g></g></g><g id="_Group_46" data-name="&lt;Group&gt;"><path id="_Path_126" data-name="&lt;Path&gt;" class="cls-3" d="M141.48,274c-3.24.57-5.28,2.26-6,5.47a26.28,26.28,0,0,0-.82,7.89l2.39,19.2L135.15,326c5.21,5.67,26,7.5,37.36-.81,0,0-.12-33.62-.65-39.38-.92-10.07-5.48-13.64-12.18-13.62l-11.46,1Z" transform="translate(-13.43 -17.6)"/><g id="_Group_47" data-name="&lt;Group&gt;"><circle id="_Path_127" data-name="&lt;Path&gt;" class="cls-23" cx="147.62" cy="231.09" r="10.17"/><g id="_Group_48" data-name="&lt;Group&gt;"><path class="cls-23" d="M147.69,250.66l-2.15-5.84a3.82,3.82,0,0,0-3.16,1.11c-1.36,1.39-.6,5.73,1.09,10,0,0,1.65,7.74,2.31,9a3.5,3.5,0,0,0,2,1.63Z" transform="translate(-13.43 -17.6)"/><path id="_Path_128" data-name="&lt;Path&gt;" class="cls-29" d="M147.5,256.28c-.62.37-1.51-.82-2.28-1.63s-3.27-1.9-4.52.73,1.1,6.23,3.08,6.85c3.4,1.07,3.91-1.11,3.91-1.11l.26,12.26a10.94,10.94,0,0,0,8.25,6.26c6,.82,4.79-4.15,2.81-6.59v-3.73a21.44,21.44,0,0,0,4.58.24c2.5-.39,4.07-2.36,4.83-5.07,1.22-4.35,1.68-7.86.65-16.41-1.13-9.37-12-9.47-17.92-5.76S147.5,256.28,147.5,256.28Z" transform="translate(-13.43 -17.6)"/><path id="_Path_129" data-name="&lt;Path&gt;" class="cls-23" d="M147.5,257.32c-.31,0-1.5-2-2.28-2.67-1.07-1,.31-9.82.31-9.82a4.19,4.19,0,0,1,1-4.47c1.47-1.62,3.93-1.8,8.13-2.46,2.07-.33,4.51-.48,6.56-.85a20.73,20.73,0,0,0,6.11-1.93,1.87,1.87,0,0,1,1.17-.3,1.1,1.1,0,0,1,.73.62,2.07,2.07,0,0,1,.17,1,3.74,3.74,0,0,1-.18,1c-.06.2-.47.79-.38,1,.21.43,1.83-.29,2.15-.38a.34.34,0,0,1,.24,0,.31.31,0,0,1,.13.15,3.92,3.92,0,0,1-.2,3.4,9,9,0,0,1-3.13,3.36,10.9,10.9,0,0,1-4.56,1.52,42.42,42.42,0,0,1-8.78.06q-1.09-.1-2.18-.26c-.46-.07-1.09-.31-1.54-.11s-.76,1-.91,1.57c-.22.79-.37,1.59-.53,2.39C149,252.75,148.55,257.3,147.5,257.32Z" transform="translate(-13.43 -17.6)"/><path id="_Path_130" data-name="&lt;Path&gt;" class="cls-23" d="M145.54,245.51l-3.76-2a2.07,2.07,0,0,1,2.85-.94A2.24,2.24,0,0,1,145.54,245.51Z" transform="translate(-13.43 -17.6)"/><path id="_Path_131" data-name="&lt;Path&gt;" class="cls-27" d="M159,269.33s-5.58-1.12-7.53-2.16a6.43,6.43,0,0,1-2.7-2.67,8.79,8.79,0,0,0,1.53,3.15c1.43,1.82,8.7,3.17,8.7,3.17Z" transform="translate(-13.43 -17.6)"/></g><g id="_Group_49" data-name="&lt;Group&gt;"><ellipse id="_Path_132" data-name="&lt;Path&gt;" class="cls-23" cx="156.54" cy="254.88" rx="1.16" ry="1.12" transform="translate(-112.21 393.1) rotate(-89.84)"/><path id="_Path_133" data-name="&lt;Path&gt;" class="cls-23" d="M156.47,250.66,154.08,252a1.43,1.43,0,0,1,.56-1.91A1.33,1.33,0,0,1,156.47,250.66Z" transform="translate(-13.43 -17.6)"/><path id="_Path_134" data-name="&lt;Path&gt;" class="cls-27" d="M158,262.2l3.59,1.35a1.88,1.88,0,0,1-2.44,1.19A2,2,0,0,1,158,262.2Z" transform="translate(-13.43 -17.6)"/><path id="_Path_135" data-name="&lt;Path&gt;" class="cls-23" d="M167.63,251.59l-2.18-1.68a1.32,1.32,0,0,1,1.9-.29A1.45,1.45,0,0,1,167.63,251.59Z" transform="translate(-13.43 -17.6)"/><ellipse id="_Path_136" data-name="&lt;Path&gt;" class="cls-23" cx="165.84" cy="254.56" rx="1.16" ry="1.12" transform="translate(-102.61 402.09) rotate(-89.84)"/><polygon id="_Path_137" data-name="&lt;Path&gt;" class="cls-27" points="147.83 235.91 148.2 242.63 151.71 241.43 147.83 235.91"/></g></g></g></g><path id="_Path_138" data-name="&lt;Path&gt;" class="cls-29" d="M198.43,291.58a11,11,0,0,0-6.18-.77c-1.68.28-1.69,5.89,3.72,7.66,3.52,1.15,5.63.64,6.77,3.54,0,0,2.28-.3,1.76-3.54a18.09,18.09,0,0,0-4.29-9c-1.55-1.83-1.65-3.37-2.42-2.85s-.46,2.29-.46,2.29Z" transform="translate(-13.43 -17.6)"/><path id="_Path_139" data-name="&lt;Path&gt;" class="cls-29" d="M98.35,300a6,6,0,0,0-4.22-1.33,15.77,15.77,0,0,1-2.36,0,3,3,0,0,1-2.48-1.57c-.11-.23-.17-.49-.28-.72s-.47-.68-.67-1a2.37,2.37,0,0,1-.22-1.71.95.95,0,0,0-.21-1.18,2.43,2.43,0,0,1-.22-2.47,3.15,3.15,0,0,0,.29-.63c.11-.47-.14-.95-.16-1.43-.09-2.16,3.5-1.85,4.78-1.56.37.08,2.17.45,3,.64a11.86,11.86,0,0,1,0-3.56c.31-2.28,2.49-3.36,2.74-2,.15.77,0,2.92.92,4.72a9.85,9.85,0,0,1,1.32,2.61c.34,1.21.74,2.07,3.44,4.64,2.52,2.4,12,10,12,10s10.14-17.29,12.45-22c3.72-7.55,13-7.51,13-7.51l-1,12.54s-15.93,25.26-18.66,28.74-6.38,2.41-8.34.66C110.65,313.37,103.29,304.86,98.35,300Z" transform="translate(-13.43 -17.6)"/><path class="cls-3" d="M142.51,273.84s-6.1-.43-10,2.33-12.24,19.07-12.24,19.07a10,10,0,0,0,3.93,5,17.93,17.93,0,0,0,6.33,2.84l9.78-14.65S143.53,283.3,142.51,273.84Z" transform="translate(-13.43 -17.6)"/><path class="cls-25" d="M142.51,273.84s-6.1-.43-10,2.33-12.24,19.07-12.24,19.07a10,10,0,0,0,3.93,5,17.93,17.93,0,0,0,6.33,2.84l9.78-14.65S143.53,283.3,142.51,273.84Z" transform="translate(-13.43 -17.6)"/><path class="cls-27" d="M96.13,287.32c1,.29,1.64,1,1.92,2.73a4.86,4.86,0,0,0,2.22,3.4,2.73,2.73,0,0,1-1.58-.37c-.63-.45-.79-.49-1-.12a2,2,0,0,1-.7.59,1.36,1.36,0,0,1,.41,1.58c-.38,1-2.81,1.45-5,.78,0,0,3.42.42,4-.74S95,293,93.64,292.92c0,0,3.26.18,3.55-.93s-1.14-1.65-3.06-1.79c0,0,2.67,0,3-1A1.62,1.62,0,0,0,96.13,287.32Z" transform="translate(-13.43 -17.6)"/></g></g></svg>